<?xml version="1.0" encoding="UTF-8"?>
<svg id="_图层_1" data-name="图层 1" xmlns="http://www.w3.org/2000/svg" viewBox="0 0 595.28 1290.89">
  <defs>
    <style>
      .cls-1 {
        fill: #989798;
      }

      .cls-2 {
        fill: #c2c2c2;
      }

      .cls-3 {
        fill: #2d2d2d;
      }

      .cls-4 {
        fill: #9498b9;
      }

      .cls-5 {
        fill: #f2f2f2;
      }

      .cls-6 {
        fill: #0097f1;
      }

      .cls-7 {
        fill: #979c9a;
      }

      .cls-8 {
        fill: #888;
      }

      .cls-9 {
        fill: #dcdcdc;
      }

      .cls-10 {
        fill: #040000;
      }

      .cls-11 {
        fill: #a6de00;
      }

      .cls-12 {
        fill: #f3f3f3;
      }
    </style>
  </defs>
  <g>
    <rect class="cls-5" x="42.2" y="902.81" width="109.77" height="28.42" rx="12.11" ry="12.11"/>
    <g>
      <path d="M50.39,921.89l-.38-2.57c.69-.08,2.33-.38,4.92-.9,2.59-.52,4.48-.91,5.66-1.16l.29,2.5c-1.26.27-2.95.62-5.06,1.04s-3.92.79-5.42,1.09ZM50.1,912.79h21.26v2.4h-21.26v-2.4ZM50.87,910.63l-.19-2.35c3.15-.27,6.21-.76,9.17-1.46l.38,2.38c-1.28.3-2.74.58-4.38.84-1.64.26-3.3.46-4.98.6ZM53.46,925.63c.34,0,.58-.11.73-.34.15-.22.23-.57.23-1.03v-15.22h2.57v15.94c0,1.09-.23,1.86-.7,2.32-.46.46-1.24.69-2.33.71-.86.02-1.62-.02-2.28-.12l-.48-2.45c.72.11,1.47.18,2.26.19ZM59.1,926.79l-1.25-2.4c2.46-1.14,4.57-2.42,6.32-3.84s3.19-3.03,4.31-4.82l2.06,1.32c-1.34,2.02-2.97,3.83-4.88,5.45-1.91,1.62-4.1,3.05-6.56,4.3ZM61.36,906.29h2.52c0,.26,0,.57.02.94s.03.79.05,1.27l.12,2.57c.14,2.53.32,4.62.52,6.26.2,1.65.47,3.05.82,4.2.34,1.15.79,2.14,1.33,2.98.26.38.48.65.67.79.19.14.39.21.6.19.21,0,.39-.11.54-.32.15-.22.3-.64.44-1.26.08-.29.23-.91.46-1.87.06-.34.12-.63.17-.89l2.21,1.08c-.27,1.22-.56,2.31-.86,3.29-.32,1.01-.71,1.72-1.18,2.15s-1.03.64-1.7.64-1.29-.2-1.86-.61c-.57-.41-1.12-1.04-1.67-1.91-.75-1.23-1.39-3.04-1.91-5.42-.52-2.38-.88-5.46-1.07-9.22-.05-.83-.08-1.6-.11-2.29-.02-.7-.05-1.32-.08-1.86l-.02-.7ZM64.96,908.26l1.61-1.63c.64.53,1.34,1.15,2.09,1.87.75.72,1.4,1.38,1.94,1.97l-1.78,1.7c-.53-.59-1.15-1.25-1.86-1.97-.71-.72-1.38-1.37-2-1.94Z"/>
      <path d="M74.8,927.41v-17.62h8.71v17.62h-8.71ZM76.14,919.13v-2.5h6.34v2.5h-6.34ZM78.32,906.03l2.69.46c-.13.61-.31,1.36-.54,2.26-.23.9-.44,1.62-.64,2.16l-2.66-.48c.21-.56.42-1.25.64-2.06s.39-1.59.52-2.33ZM81.01,912.31h-3.74v12.53h3.74v-12.53ZM85.98,915.36l-2.21-1.37c.66-1.15,1.28-2.48,1.86-3.97.58-1.5,1.02-2.88,1.31-4.16l2.54.55c-.38,1.49-.87,3-1.45,4.52-.58,1.53-1.27,3-2.05,4.43ZM85.45,917.02l1.92-1.49c.51.61,1.11,1.37,1.79,2.28.68.91,1.29,1.76,1.84,2.54l-1.97,1.68c-.54-.88-1.15-1.78-1.81-2.71-.66-.93-1.25-1.7-1.76-2.3ZM92.6,912.12h-6.12l.48-2.54h8.26c0,2.18-.05,4.68-.16,7.5-.1,2.82-.24,5.36-.4,7.62-.05.8-.19,1.43-.43,1.9s-.59.79-1.04.98c-.46.19-1.06.3-1.81.31-.78.02-1.62,0-2.52-.07l-.89-.05-.46-2.62.36.05c.42.03.85.07,1.3.11.45.04.9.05,1.34.04.4,0,.71-.05.94-.16.22-.1.39-.3.5-.58.11-.28.19-.7.24-1.26.14-1.79.25-3.66.32-5.59s.1-3.82.08-5.64Z"/>
      <path d="M97.96,920.71l-.48-2.66c.98-.22,2.18-.55,3.61-.98,1.43-.43,2.68-.83,3.73-1.2l.31,2.64c-1.14.34-2.38.71-3.72,1.13-1.34.42-2.5.78-3.46,1.08ZM97.88,910.39h7.42v2.35h-7.42v-2.35ZM99.83,925.92c.34,0,.57-.09.71-.26.14-.18.2-.48.2-.91v-18.5h2.45v19.2c0,.7-.08,1.24-.24,1.62s-.43.65-.82.82-.92.25-1.61.25-1.29-.04-1.9-.12l-.46-2.28c.69.13,1.24.19,1.66.19ZM105.49,913.68h14.18v2.47h-14.18v-2.47ZM105.66,918.19h13.73v2.45h-13.73v-2.45ZM106.36,909h12.26v2.42h-12.26v-2.42ZM106.57,922.35l1.78-1.68c.5.45,1.16,1.1,1.99,1.97l.98,1.01-1.82,1.87c-.27-.32-.6-.69-1-1.12-.39-.42-.77-.83-1.14-1.21-.14-.14-.28-.29-.42-.43-.14-.14-.26-.28-.37-.41ZM112.74,925.75c.4,0,.7-.05.9-.14s.34-.26.41-.49c.07-.23.11-.56.11-.97v-8.57h2.54v9.46c0,.78-.1,1.4-.3,1.84-.2.44-.53.76-1,.95-.46.19-1.14.3-2.02.34-.82.02-1.65-.02-2.5-.12l-.43-2.47c.94.13,1.7.19,2.28.19ZM111.04,906.34h2.5v8.21h-2.5v-8.21Z"/>
      <path d="M122.87,917.23l-1.37-2.62c2.22-1.15,4.22-2.5,5.99-4.04,1.77-1.54,3.16-3.16,4.19-4.84h2.3c1.09,1.71,2.49,3.29,4.2,4.74s3.7,2.74,5.98,3.88l-1.32,2.69c-2.02-1.07-3.93-2.36-5.74-3.85-1.81-1.5-3.22-2.94-4.25-4.33-1.17,1.5-2.62,2.98-4.37,4.44s-3.62,2.77-5.62,3.94ZM125.84,914.38h13.42c0,1.47-.06,3.14-.19,4.99-.08.86-.23,1.53-.44,2-.22.47-.57.81-1.07,1.02s-1.19.32-2.09.34c-1.14.02-2.26-.03-3.38-.14l-.48-2.42c1.06.13,2.07.19,3.05.19.5,0,.87-.04,1.12-.12s.42-.22.53-.43c.1-.21.19-.53.25-.96.06-.72.1-1.42.12-2.09h-8.3v6.72c0,.53.04.93.13,1.2.09.27.26.47.53.59s.66.2,1.19.23c2.46.18,4.92.18,7.37,0,.58-.03,1-.1,1.27-.2.27-.1.46-.28.58-.53.11-.25.19-.63.24-1.14l.05-.53c.05-.85.07-1.32.07-1.42l2.64.74c-.05.82-.08,1.23-.1,1.25l-.12,1.18c-.08.83-.24,1.46-.49,1.87-.25.42-.63.71-1.15.89-.52.18-1.28.3-2.29.36-2.88.18-5.76.18-8.64,0-.98-.06-1.73-.2-2.26-.41-.53-.21-.92-.57-1.16-1.09-.25-.52-.37-1.28-.37-2.29v-9.79Z"/>
    </g>
    <g>
      <path class="cls-1" d="M193.6,924.46h17.78v2.45h-17.78v-2.45ZM194.18,913.66h18.77v14.54h-2.62v-12.05h-16.15v-2.5ZM194.25,908.45l1.92-1.68c.53.48,1.27,1.22,2.22,2.23.95,1.01,1.72,1.86,2.32,2.54l-2.06,1.68c-.56-.69-1.26-1.5-2.11-2.42s-1.61-1.71-2.28-2.35ZM194.85,918.94h16.78v2.47h-16.78v-2.47ZM202.41,906.22h2.62v8.95h-2.62v-8.95ZM208.65,913.37l-1.87-1.68c.69-.67,1.46-1.48,2.33-2.42.86-.94,1.56-1.75,2.09-2.42l1.99,1.56c-.5.64-1.2,1.46-2.1,2.45-.9.99-1.72,1.83-2.44,2.52Z"/>
      <path class="cls-1" d="M216.91,908.9h21.48v2.33h-21.48v-2.33ZM227.63,912.86v12.46c0,1.06-.2,1.79-.59,2.21-.39.42-1.08.63-2.05.65-.67.02-1.38-.02-2.11-.1l-.5-2.35c.61.1,1.21.14,1.8.14.42,0,.69-.08.82-.24s.19-.45.19-.86v-9.62h-4.34v12.98h-2.47v-15.26h9.26ZM219.86,916.99h6.26v2.14h-6.26v-2.14ZM219.88,921.07h6.24v2.11h-6.24v-2.11ZM221.47,906.65l2.45-.82c.29.53.7,1.37,1.22,2.52.08.18.16.34.24.5.08.16.14.3.19.43l-2.45.86-.74-1.63c-.14-.34-.3-.66-.46-.98-.16-.32-.31-.62-.46-.89ZM231.47,910.66l-2.38-.79c.37-.58.76-1.23,1.16-1.96.41-.73.79-1.42,1.14-2.08l2.54.91c-.38.66-.8,1.35-1.26,2.08-.46.73-.86,1.34-1.21,1.84ZM229.67,913.49h2.3v10.25h-2.3v-10.25ZM232.91,925.82c.56,0,.93-.1,1.12-.31s.28-.58.28-1.1v-11.88h2.47v12.48c0,.78-.09,1.4-.28,1.86-.18.46-.51.79-.97,1s-1.12.31-1.97.31c-.93,0-1.89-.06-2.88-.17l-.48-2.42c.98.14,1.88.22,2.71.24Z"/>
      <path class="cls-1" d="M244.77,927.51l-1.66-2.16s.04-.06.06-.07c.02-.02.04-.04.06-.07.18-.18.3-.36.36-.56.06-.2.1-.44.1-.73v-7.54h-3.02v-2.74h5.71v9.24l1.54-1.13c.24-.18.49-.36.74-.54.26-.18.5-.37.74-.56l.96,2.78c-.13.08-.25.16-.37.24s-.24.16-.37.24c-.62.42-1.24.84-1.86,1.27-.62.43-1.16.83-1.62,1.2-.64.48-1.1.86-1.37,1.13ZM241.94,907.68l2.16-1.49c.54.64,1.39,1.71,2.54,3.22l1.03,1.34-2.16,1.63c-.14-.21-.3-.43-.48-.67s-.36-.49-.55-.74c-.46-.59-.91-1.18-1.34-1.75-.43-.58-.83-1.09-1.2-1.54ZM249.09,907.61h13.73v2.66h-13.73v-2.66ZM254.35,925.39c.35,0,.62-.06.82-.17.19-.11.33-.28.42-.52.09-.23.13-.55.13-.95v-14.83h2.74v15.65c0,.82-.11,1.47-.34,1.96-.22.49-.58.84-1.07,1.07-.49.22-1.15.35-1.98.38-.96.02-1.99-.03-3.1-.14l-.55-2.66c1.1.14,2.08.22,2.93.22Z"/>
      <path class="cls-1" d="M264.95,922.18h21.55v2.42h-21.55v-2.42ZM266.95,909.41h17.62v10.78h-17.62v-10.78ZM268.36,913.73h14.78v2.14h-14.78v-2.14ZM269.51,911.71v6.19h12.46v-6.19h-12.46ZM269.59,907.06l2.21-1.18c.62.74,1.34,1.7,2.16,2.88l-2.18,1.2c-.45-.64-.91-1.28-1.39-1.92-.42-.51-.68-.84-.79-.98ZM274.46,910.44h2.54v17.74h-2.54v-17.74ZM279.23,910.73l-2.45-.82c.37-.45.81-1.02,1.33-1.73.52-.7,1-1.37,1.43-1.99l.17-.26,2.38.94c-.06.1-.13.2-.2.3-.07.1-.14.2-.2.3-.42.58-.85,1.17-1.3,1.79-.45.62-.83,1.11-1.15,1.48Z"/>
    </g>
    <path class="cls-11" d="M117.17,948.58h-40.19c-1.1,0-2-.9-2-2s.9-2,2-2h40.19c1.1,0,2,.9,2,2s-.9,2-2,2Z"/>
  </g>
  <g>
    <path class="cls-10" d="M79.58,87.77h-15.52c-.89,0-1.6-.72-1.6-1.6s.72-1.6,1.6-1.6h15.52c.89,0,1.6.72,1.6,1.6s-.72,1.6-1.6,1.6Z"/>
    <path class="cls-10" d="M89.75,97.79h-25.69c-.89,0-1.6-.72-1.6-1.6s.72-1.6,1.6-1.6h25.69c.89,0,1.6.72,1.6,1.6s-.72,1.6-1.6,1.6Z"/>
    <path class="cls-10" d="M89.75,105.85h-25.69c-.89,0-1.6-.72-1.6-1.6s.72-1.6,1.6-1.6h25.69c.89,0,1.6.72,1.6,1.6s-.72,1.6-1.6,1.6Z"/>
    <path class="cls-10" d="M88.93,91.6l-.15.87-.15-.87c-.46-2.71-2.58-4.83-5.29-5.29l-.87-.15.87-.15c2.71-.46,4.83-2.58,5.29-5.29l.15-.87.15.87c.46,2.71,2.58,4.83,5.29,5.29l.87.15-.87.15c-2.71.46-4.83,2.58-5.29,5.29Z"/>
  </g>
  <g>
    <polygon class="cls-11" points="297.64 1170.54 265.85 1225.6 329.43 1225.6 297.64 1170.54"/>
    <g>
      <g>
        <g>
          <path class="cls-3" d="M280.06,1188.85l.22-1.28.22,1.28c.67,3.95,3.77,7.05,7.72,7.72l1.27.21c0-.16,0-.32,0-.48,0-4.48-1.06-7.88-3.19-10.21-2.13-2.33-5.24-3.5-9.33-3.5h-5.9v14.19l1.28-.22c3.95-.67,7.05-3.77,7.72-7.72Z"/>
          <path class="cls-3" d="M288.21,1197c-3.95.67-7.05,3.77-7.72,7.72l-.22,1.28-.22-1.28c-.67-3.95-3.77-7.05-7.72-7.72l-1.28-.22v13.66h6.2c2.28,0,4.36-.47,6.25-1.4,1.88-.93,3.35-2.44,4.4-4.53,1-1.98,1.52-4.57,1.57-7.73l-1.27.21Z"/>
        </g>
        <path class="cls-3" d="M290.33,1182.59h12.79v5.93h-6.47v5.13h5.61v5.78h-5.61v5.07h6.51v5.95h-12.83v-27.85Z"/>
        <path class="cls-3" d="M303.66,1182.59h7.01c1.79,4.37,2.77,6.87,2.94,7.51h.08c.03-.19.29-.9.79-2.13l2.13-5.38h7.01l-6.47,13.29,7.01,14.56h-7.01c-2.24-5.24-3.41-8.07-3.51-8.47h-.08c-.24.89-.55,1.77-.94,2.65l-2.57,5.82h-6.91l6.86-14.48-6.36-13.37Z"/>
      </g>
      <g>
        <path class="cls-2" d="M67.52,1189.84h-25.77c-.5,0-.91-.41-.91-.91v-1.73c0-.5.41-.91.91-.91h20.37c.5,0,.91-.41.91-.91v-1.74c0-.5-.4-.91-.9-.91-4.01-.04-20.24-.21-24.22-.07-.49.02-.88.42-.88.91v25.98c0,.5.41.91.91.91h29.57c.5,0,.91-.41.91-.91v-18.78c0-.5-.41-.91-.91-.91ZM64.51,1198.5c-2.31.39-4.13,2.2-4.52,4.52l-.13.75-.13-.75c-.39-2.31-2.2-4.13-4.52-4.52l-.75-.13.75-.13c2.31-.39,4.13-2.2,4.52-4.52l.13-.75.13.75c.39,2.31,2.2,4.13,4.52,4.52l.75.13-.75.13Z"/>
        <g>
          <path class="cls-2" d="M35.96,1232.24l-.6-.63c.63-.77,1.21-1.67,1.74-2.68.54-1.02.99-2.08,1.36-3.17l.83.25c-.41,1.19-.9,2.32-1.46,3.38-.57,1.06-1.19,2.01-1.88,2.86ZM35.78,1235.83v-.89h6.02v.89h-6.02ZM36.85,1232.25v-.87h4.72v.87h-4.72ZM37.73,1229.15v-.89h4.48v.89h-4.48ZM38.26,1241.69l-.47-.8c.21-.13.34-.25.41-.34.07-.1.1-.21.1-.34v-8.24h.89v8.13c.21-.12.42-.25.64-.38.22-.13.46-.27.71-.42.23-.14.46-.29.68-.42.22-.14.42-.27.61-.39l.16.94c-.12.07-.25.15-.39.23s-.28.16-.42.24c-.36.22-.72.43-1.08.63-.36.21-.69.4-.99.58-.07.05-.14.1-.22.14-.07.05-.15.1-.24.16-.13.08-.26.17-.38.27ZM42.42,1234.62l-.09-.85,9.36-1.32.09.85-9.36,1.32ZM42.49,1231.13l-.09-.85,8.86-1.07.07.87-8.84,1.05ZM42.85,1240.88l-.42-.83c1.64-.67,3.11-1.49,4.41-2.43,1.3-.95,2.43-2.04,3.4-3.28l.6.58c-1.01,1.3-2.18,2.45-3.51,3.43-1.33.99-2.82,1.83-4.48,2.53ZM44.59,1225.75l.89-.02c.06,1.4.14,2.82.24,4.27.01.07.02.14.03.22,0,.07,0,.14,0,.22.13,1.8.28,3.25.45,4.37.17,1.12.39,2.12.68,2.98.28.87.64,1.57,1.08,2.11.3.39.59.66.86.83.27.17.52.25.75.25.27,0,.49-.11.66-.33.17-.22.34-.62.5-1.2.08-.31.17-.66.24-1.05.08-.39.14-.73.19-1.03l.79.42c-.06.35-.13.73-.22,1.13-.08.4-.17.74-.25,1.02-.24.78-.51,1.32-.8,1.62-.3.29-.67.44-1.11.44-.4,0-.78-.12-1.16-.36-.37-.24-.8-.66-1.27-1.26-.45-.58-.82-1.34-1.12-2.3-.3-.95-.54-2.05-.71-3.31s-.34-2.87-.5-4.84c-.04-.49-.07-.97-.09-1.42-.02-.45-.05-.88-.07-1.29-.01-.37-.03-.86-.05-1.46ZM46.93,1226.45l.56-.54c.36.3.77.67,1.23,1.09.46.43.86.82,1.19,1.17l-.56.58c-.33-.36-.72-.76-1.19-1.2-.47-.44-.88-.8-1.23-1.09Z"/>
          <path class="cls-2" d="M54.24,1233.01l-.72-.74c.93-.92,1.76-1.94,2.5-3.07.74-1.13,1.33-2.28,1.76-3.45l1.01.33c-.53,1.3-1.17,2.53-1.93,3.7-.76,1.16-1.63,2.25-2.62,3.25ZM55.76,1239.49v-8.15h7.61v5.22h-7.14v-.9h6.22v-3.38h-5.78v7.01c0,.45.05.77.15.99.1.21.28.35.52.42s.63.13,1.15.16c1.31.07,2.68.11,4.09.11s2.78-.04,4.09-.11c.48-.04.83-.09,1.06-.17s.38-.21.48-.39c.1-.18.17-.47.22-.87.04-.25.07-.56.09-.93.02-.37.04-.67.05-.91l.96.27c-.02.31-.05.67-.09,1.06s-.07.73-.11,1.02c-.07.49-.19.86-.34,1.1-.16.24-.4.41-.72.51s-.82.18-1.48.23c-1.39.07-2.81.11-4.28.11s-2.87-.04-4.21-.11c-.66-.05-1.17-.13-1.52-.25s-.61-.34-.77-.65c-.16-.31-.24-.78-.24-1.39ZM57.31,1227.86h10.66c.01,1.42,0,2.86-.05,4.32-.05,1.46-.13,2.75-.23,3.87-.06.66-.17,1.17-.34,1.52s-.43.6-.78.75-.83.23-1.43.23c-.27,0-.75-.02-1.46-.07-.1-.01-.2-.02-.3-.03-.1,0-.2-.02-.3-.03l-.13-.92c.76.07,1.44.12,2.04.14.46.01.8-.03,1.03-.14.23-.1.39-.28.49-.54.1-.26.17-.65.22-1.18.1-1.02.17-2.16.23-3.4.05-1.24.08-2.45.06-3.62h-10.09l.38-.9Z"/>
        </g>
      </g>
      <g>
        <g>
          <path class="cls-2" d="M175.98,1192.47c0-5.97-4.84-10.8-10.8-10.8s-10.8,4.84-10.8,10.8c0,3.09,1.3,5.88,3.38,7.85.37.51.8,1.38.96,2.77-.47.02-.85.41-.85.89s.4.9.9.9h.58v1.13h-.58c-.5,0-.9.4-.9.9s.4.9.9.9h.58v1.13h-.58c-.5,0-.9.4-.9.9s.4.9.9.9h1.6c.42,2.27,2.41,3.99,4.81,3.99s4.39-1.72,4.81-3.99h1.6c.5,0,.9-.4.9-.9s-.4-.9-.9-.9h-.58v-1.13h.58c.5,0,.9-.4.9-.9s-.4-.9-.9-.9h-.58v-1.13h.58c.5,0,.9-.4.9-.9s-.38-.87-.85-.89c.16-1.39.6-2.26.96-2.77,2.08-1.97,3.38-4.76,3.38-7.85Z"/>
          <path class="cls-2" d="M152.92,1211.09c-2.54-.44-4.42-1.54-5.4-3.24-1.34-2.32-.9-5.54,1.24-9.07.87-1.44,1.99-2.84,3.29-4.19-.16-.74-.32-1.48-.5-2.21-1.79,1.71-3.3,3.53-4.44,5.4-2.52,4.15-2.97,8.07-1.26,11.04,1.33,2.3,3.81,3.74,7.12,4.23-.02-.65-.03-1.3-.05-1.96Z"/>
          <path class="cls-2" d="M183.64,1187c-1.31-2.27-3.75-3.72-7-4.22.04.66.07,1.32.11,1.97,2.45.46,4.26,1.56,5.21,3.21,2.23,3.85-.68,10.04-6.55,15.14,0,.84.02,1.67.03,2.51,7.58-5.92,11.13-13.51,8.19-18.61Z"/>
          <circle class="cls-2" cx="151.77" cy="1210.53" r="3.9"/>
          <path class="cls-2" d="M179.17,1188.34l-.13.75-.13-.75c-.39-2.31-2.2-4.13-4.52-4.52l-.75-.13.75-.13c2.31-.39,4.13-2.2,4.52-4.52l.13-.75.13.75c.39,2.31,2.2,4.13,4.52,4.52l.75.13-.75.13c-2.31.39-4.13,2.2-4.52,4.52Z"/>
        </g>
        <g>
          <path class="cls-2" d="M147.56,1236.05l-.25-.92c.41-.17.83-.34,1.27-.52.44-.18.89-.37,1.35-.56.48-.19,1.42-.58,2.8-1.17v.94c-.4.18-.82.37-1.26.56s-.89.39-1.36.58c-.46.19-.9.39-1.33.58-.43.19-.83.37-1.22.52ZM148.91,1241.15c.39,0,.65-.09.79-.27s.21-.48.21-.9v-13.95h.89v14.19c0,.45-.05.8-.14,1.05s-.26.44-.48.56c-.22.12-.54.18-.95.18-.55,0-1.07-.03-1.55-.09l-.18-.89c.52.08.99.13,1.43.13ZM147.61,1229.49h5.12v.9h-5.12v-.9ZM152.53,1241.22l-.58-.83c1.17-.79,2.18-1.63,3.03-2.51.85-.88,1.62-1.88,2.3-3l.63.56c-.67,1.13-1.45,2.16-2.32,3.09s-1.89,1.83-3.06,2.69ZM153.11,1234.55h10.47v.89h-10.47v-.89ZM153.76,1233.39l-.49-.71c.61-.42,1.26-.92,1.92-1.49.67-.57,1.24-1.12,1.73-1.64l.6.62c-.54.57-1.15,1.14-1.83,1.73-.67.58-1.32,1.08-1.93,1.49ZM153.49,1227.12h9.72v3.13h-.85v-2.22h-8.03v2.21h-.85v-3.11ZM157.72,1232.27h.9v10.07h-.9v-10.07ZM158.42,1235.44l.6-.6c.66,1.1,1.39,2.07,2.2,2.91.8.84,1.79,1.69,2.97,2.53l-.52.85c-1.18-.9-2.18-1.8-2.99-2.68-.81-.89-1.56-1.89-2.25-3.01ZM158.82,1230.25l.51-.69,1.03.76c1.23.93,2.17,1.64,2.82,2.15l-.51.71c-.6-.46-1.28-.97-2.02-1.54s-1.36-1.03-1.83-1.38Z"/>
          <path class="cls-2" d="M165.87,1241.87l-.38-.89c.84-.36,1.72-.8,2.64-1.32s1.67-1.01,2.26-1.46l.47.78c-.65.49-1.43,1-2.34,1.52-.91.52-1.79.98-2.65,1.37ZM166.47,1230.25h14.62v3.11h-.98v-2.28h-12.67v2.26h-.98v-3.09ZM166.86,1237.89l-.13-.85c.41-.01.76-.03,1.04-.05.28-.02.51-.07.68-.13,1.4-.46,2.9-1.14,4.5-2.04,1.6-.9,3.12-1.86,4.54-2.87l.51.7c-1.4.99-2.7,1.84-3.91,2.55s-2.39,1.28-3.53,1.72l4.45-.29c.75-.05,1.49-.09,2.23-.13.74-.04,1.49-.09,2.23-.14l.24.83-5.58.31c-.93.05-1.86.1-2.79.15-.93.05-1.87.11-2.79.17-.12,0-.24,0-.35,0-.11,0-.23.02-.35.03l-.96.04ZM166.77,1227.46h14.03v.85h-14.03v-.85ZM167.75,1234.88l-.13-.71c.34-.02.6-.05.78-.09s.35-.1.51-.18c.54-.25,1.22-.68,2.04-1.29.82-.61,1.61-1.23,2.37-1.87l1.08.13c-.52.49-1.19,1.06-2.02,1.7-.83.64-1.54,1.13-2.12,1.46.42-.04.84-.07,1.27-.1.42-.03.85-.06,1.28-.1l2.53-.2-.42.72-2.96.22-1.48.11c-.49.04-.99.07-1.48.11-.1.01-.19.02-.28.02s-.18,0-.28.02c-.11,0-.22,0-.33.02s-.23.02-.36.04ZM172.57,1241.2c.33,0,.56-.11.71-.33s.22-.56.22-1.03v-2.82h.92v3.04c0,.7-.12,1.2-.37,1.49s-.65.45-1.2.46c-.54.01-1.15-.02-1.83-.09l-.15-.87c.66.08,1.23.13,1.7.14ZM173.3,1225.71h.94v4.88h-.94v-4.88ZM176.12,1239.03l.42-.79c.6.28,1.47.71,2.61,1.29,1.14.58,2.05,1.06,2.74,1.44l-.43.83c-.6-.35-1.47-.82-2.61-1.4-1.14-.58-2.05-1.04-2.72-1.36ZM176.86,1235l.61-.6.78.69c.48.46.97.93,1.47,1.43.5.49.92.93,1.27,1.3l-.58.63c-.35-.39-.77-.83-1.26-1.32-.5-.49-.97-.95-1.43-1.36-.06-.06-.35-.32-.87-.78Z"/>
        </g>
      </g>
      <g>
        <g>
          <circle class="cls-2" cx="420.47" cy="1207.42" r="4.46"/>
          <circle class="cls-2" cx="443.19" cy="1207.42" r="4.46"/>
          <circle class="cls-2" cx="442.27" cy="1185.62" r="4.46"/>
          <rect class="cls-2" x="415.98" y="1195.96" width="29.65" height="1.66" transform="translate(-727.63 671.5) rotate(-45.81)"/>
          <rect class="cls-2" x="435.88" y="1194.32" width="1.66" height="16.8" transform="translate(-769.02 774.38) rotate(-50.49)"/>
          <path class="cls-2" d="M422.08,1199.17l-.16.94-.16-.94c-.49-2.91-2.77-5.2-5.69-5.69l-.94-.16.94-.16c2.91-.49,5.2-2.77,5.69-5.69l.16-.94.16.94c.49,2.91,2.77,5.2,5.69,5.69l.94.16-.94.16c-2.91.49-5.2,2.77-5.69,5.69Z"/>
          <polygon class="cls-2" points="441.86 1185.07 425.38 1190.07 427.02 1191.3 440.41 1187.24 442.28 1206.59 421.3 1206.59 421.3 1201.33 419.64 1198.31 419.64 1208.25 444.1 1208.25 441.86 1185.07"/>
        </g>
        <g>
          <path class="cls-2" d="M414.94,1242.25l-.87-.51c.71-1.05,1.24-1.99,1.58-2.84.34-.84.57-1.74.7-2.69s.18-2.2.18-3.74v-4.27h13.88v.92h-12.92v3.24c0,1.66-.06,3-.19,4.02-.13,1.02-.37,1.97-.72,2.86s-.9,1.89-1.64,3ZM422.16,1225.86l.92-.25c.42.74.94,1.71,1.55,2.93l-1.01.13c-.11-.22-.24-.47-.39-.75s-.3-.58-.46-.89c-.25-.47-.46-.86-.61-1.16Z"/>
          <path class="cls-2" d="M432.24,1239.21l-.24-.92c.87-.2,1.83-.48,2.88-.81,1.05-.34,2.02-.68,2.91-1.03l.04.9c-.93.36-1.86.7-2.81,1.02-.95.32-1.87.6-2.77.84ZM432.33,1231.17v-.92h5.53v.92h-5.53ZM434.63,1237.84v-12.02h.94v12.02h-.94ZM436.65,1240.66l-.63-.67c1.54-1.1,2.72-2.24,3.53-3.42.81-1.18,1.38-2.53,1.69-4.05l.87.05c-.31,1.64-.91,3.11-1.78,4.4-.87,1.3-2.1,2.52-3.68,3.68ZM438.66,1227.84v-.89h7.55v.92l-6.22,4.21h7.81v.42c-.06,1.43-.13,2.76-.21,3.99-.08,1.22-.18,2.27-.3,3.15-.09.58-.21,1.02-.36,1.32-.16.3-.4.51-.71.63-.32.12-.78.17-1.37.16-.6,0-1.17-.04-1.7-.11l-.18-.94.31.05c.62.07,1.08.11,1.41.11.41.01.73-.03.95-.12.22-.09.39-.24.5-.46.11-.22.2-.54.27-.96.12-.77.22-1.72.29-2.86.07-1.13.13-2.3.18-3.51h-8.51v-.81l6.44-4.32h-6.15ZM439.67,1241.92l-.63-.72c1.05-.76,1.9-1.53,2.56-2.3s1.19-1.66,1.6-2.64.77-2.18,1.07-3.61l.85.09c-.28,1.48-.63,2.75-1.06,3.8-.43,1.05-.99,2.01-1.69,2.86-.7.85-1.6,1.69-2.69,2.52Z"/>
        </g>
      </g>
      <g>
        <g>
          <path class="cls-2" d="M539.8,1190.48c-7.5,0-13.57,4.47-13.57,9.98,0,1.05.22,2.06.63,3.01l-2.29,6.97,6.65-2.26c2.34,1.41,5.33,2.26,8.59,2.26,7.5,0,13.57-4.47,13.57-9.98s-6.08-9.98-13.57-9.98ZM544.69,1200.59c-2.44.41-4.35,2.32-4.76,4.76l-.13.79-.13-.79c-.41-2.44-2.32-4.35-4.76-4.76l-.79-.13.79-.13c2.44-.41,4.35-2.32,4.76-4.76l.13-.79.13.79c.41,2.44,2.32,4.35,4.76,4.76l.79.13-.79.13Z"/>
          <g>
            <path class="cls-2" d="M548.45,1188.41c-.69-.41-1.26-.3-2.03-.3l-.02.48v1.31c.32.12.64.24.95.38.49-.05.97-.2,1.29-.53.37-.39.27-1.06-.19-1.33Z"/>
            <path class="cls-2" d="M560.51,1192.58c0-5.51-6.08-9.98-13.57-9.98-6.09,0-11.25,2.96-12.96,7.03,1.8-.57,3.76-.89,5.82-.89,1.58,0,3.11.18,4.55.53v-.32c0-.22,0-.46-.1-.65-.14-.24-.4-.33-.65-.33h-.85s.02-1.13.02-1.13h2.48s.01-1.75.01-1.75h1.08s0,1.75,0,1.75h.81c.02-.11.05-.23.05-.31v-1.44s1.09,0,1.09,0v1.74s.82.09.82.09c1.09.12,1.97.81,1.92,1.96,0,.2-.02.43-.09.6-.3.71-.33.55-.95,1.03.44.16.9.26,1.2.58.51.54.59,1.3.47,1.98,2.14,2.02,3.43,4.59,3.43,7.38,0,.83-.12,1.65-.34,2.43l5.02,1.7-1.99-6.06c1.69-1.67,2.7-3.72,2.7-5.96Z"/>
          </g>
        </g>
        <g>
          <path class="cls-2" d="M531.33,1228.84v.94c-.76,1.64-1.59,3.07-2.5,4.28-.91,1.22-2,2.38-3.26,3.49l-.34-.96c1.17-1.07,2.14-2.11,2.9-3.12.76-1.01,1.48-2.24,2.14-3.7h-4.48v-.94h5.55ZM527.73,1226.06l.9-.16c.13.42.29,1,.46,1.74.17.74.31,1.35.42,1.82l-.9.18c-.1-.43-.21-.91-.34-1.44s-.26-1.04-.38-1.54c-.08-.3-.14-.5-.16-.6ZM529.31,1233.36v8.84h-.94v-8.55l.94-.29ZM528.64,1234.24l.49-.71c.3.19.78.53,1.44,1.02s1.2.9,1.62,1.24l-.54.74c-.4-.34-.91-.74-1.53-1.22-.62-.48-1.11-.83-1.47-1.08ZM531.13,1240.48h10.57v.92h-10.57v-.92ZM532.05,1231.44h9.09v.96h-9.09v-.96ZM536.01,1225.82h.99v15.15h-.99v-15.15Z"/>
          <path class="cls-2" d="M543.69,1242.4l-.42-.9c2.16-.61,3.93-1.28,5.33-2.01,1.4-.72,2.55-1.57,3.47-2.54.91-.97,1.72-2.17,2.4-3.61l.85.43c-.73,1.49-1.58,2.75-2.53,3.78-.95,1.02-2.15,1.92-3.6,2.69-1.45.77-3.28,1.49-5.51,2.15ZM543.71,1228.22h15.71v.94h-15.71v-.94ZM544.6,1235.29l-.58-.83c.88-.58,1.77-1.26,2.66-2.05.89-.79,1.68-1.58,2.37-2.38l.71.63c-.69.78-1.49,1.59-2.4,2.41-.92.83-1.83,1.56-2.75,2.21ZM547.69,1233.83l.79-.47c.82,1.49,1.7,2.72,2.65,3.68.95.96,2.11,1.77,3.49,2.42,1.38.66,3.14,1.26,5.29,1.8l-.38.96c-2.24-.62-4.07-1.27-5.48-1.96-1.42-.69-2.61-1.54-3.59-2.54-.98-1-1.9-2.3-2.77-3.89ZM550.42,1225.95l.98-.33c.41.94.81,1.94,1.19,3l-.99.2-.18-.49c-.37-1-.71-1.8-.99-2.39ZM553.09,1230.75l.58-.71c.77.54,1.67,1.21,2.68,2,1.02.79,1.92,1.52,2.7,2.2l-.6.78c-.76-.66-1.65-1.4-2.67-2.21-1.02-.81-1.92-1.49-2.7-2.06Z"/>
        </g>
      </g>
    </g>
  </g>
  <g>
    <path d="M279.79,102.29h-5.5v-17.57h5.5c1.71,0,3.26.34,4.64,1.03,1.38.69,2.47,1.69,3.26,3.01.79,1.32,1.19,2.89,1.19,4.72s-.39,3.42-1.18,4.74c-.78,1.32-1.87,2.33-3.25,3.02s-2.94,1.04-4.67,1.04ZM279.43,87.31h-2.11v12.36h2.11c1.33,0,2.46-.24,3.4-.72.94-.48,1.65-1.18,2.14-2.11.49-.93.73-2.05.73-3.36s-.24-2.41-.73-3.34-1.2-1.63-2.15-2.11c-.94-.48-2.07-.72-3.38-.72Z"/>
    <path d="M294.91,91.99h7.34v2.64h-7.34v4.99h8.47v2.66h-11.5v-17.59h11.23v2.66h-8.21v4.63Z"/>
    <path d="M312.91,90.94l4.32-6.22h3.5l-6.17,8.59,6.41,8.98h-3.72l-4.56-6.5-4.56,6.5h-3.48l6.41-8.9-6.19-8.66h3.72l4.32,6.22Z"/>
  </g>
  <g>
    <rect class="cls-12" x="42.43" y="152.83" width="61.19" height="28.42" rx="12.11" ry="12.11"/>
    <path class="cls-11" d="M82.6,198.16h-19.16c-1.1,0-2-.9-2-2s.9-2,2-2h19.16c1.1,0,2,.9,2,2s-.9,2-2,2Z"/>
    <g>
      <path d="M51.3,160.63h2.62v16.87h-2.62v-16.87ZM51.78,157.08l1.7-1.82c.54.45,1.2,1.04,1.98,1.76.78.73,1.41,1.36,1.91,1.88l-1.82,1.99c-.45-.53-1.06-1.18-1.84-1.96-.78-.78-1.42-1.4-1.93-1.86ZM55.89,173.49l-1.82-2.16c1.62-1.01,2.83-1.94,3.64-2.81.81-.86,1.37-1.8,1.68-2.81.31-1.01.47-2.3.47-3.86v-1.03h2.59v1.22c0,1.76-.21,3.29-.62,4.58s-1.1,2.49-2.04,3.58-2.24,2.18-3.89,3.29ZM71.01,156.93v16.97c0,.94-.1,1.68-.31,2.2s-.55.89-1.03,1.1c-.48.22-1.16.33-2.04.35-.96.03-2,0-3.12-.12l-.48-2.64c1.06.16,2.01.23,2.86.22.43-.02.76-.08.98-.2.22-.12.38-.31.46-.58.08-.26.12-.64.12-1.12v-13.66h-10.18v-2.52h12.74ZM59.97,166.68l1.61-1.82c.83.75,1.87,1.73,3.11,2.93,1.24,1.2,2.29,2.24,3.16,3.12l-1.87,2.09c-.18-.19-.36-.39-.54-.59-.18-.2-.38-.4-.59-.61-2.1-2.29-3.72-3.99-4.87-5.11Z"/>
      <path d="M75.68,177.98l-1.49-2.28c1.66-.66,2.92-1.28,3.78-1.87.86-.59,1.46-1.25,1.81-1.97.35-.72.58-1.68.67-2.88.02-.06.02-.14.02-.22v-.26l.02-.5h2.59l-.02.46c-.02.13-.03.24-.04.35,0,.1-.02.2-.04.3-.13,1.6-.42,2.89-.88,3.88-.46.98-1.18,1.85-2.16,2.6s-2.41,1.55-4.28,2.4ZM76.36,159.55h17.04v9.58h-17.04v-9.58ZM78.47,156.67l2.11-1.39c.21.29.42.59.64.9.22.31.44.63.66.95.19.29.38.57.58.85.19.28.38.56.58.85l-2.23,1.34c-.16-.27-.55-.88-1.18-1.82-.46-.7-.85-1.26-1.15-1.68ZM78.85,161.97v4.73h12.05v-4.73h-12.05ZM87.97,161.45l-2.02-1.44c.51-.7,1.08-1.52,1.72-2.46.63-.94,1.12-1.68,1.45-2.24l2.23,1.27c-.16.24-.34.51-.54.8s-.41.61-.64.95c-.38.56-.77,1.11-1.15,1.64-.38.54-.74,1.03-1.06,1.48ZM88.64,167.97v5.4c0,.42.03.73.08.95.06.22.17.38.35.48.18.1.43.18.77.23.66.08,1.31.08,1.97,0,.38-.05.67-.12.85-.22.18-.1.31-.24.38-.44s.12-.51.16-.92c.02-.16.03-.34.04-.53,0-.19.02-.4.04-.62.03-.59.05-.98.05-1.18l2.38.46c0,.16,0,.36-.01.59,0,.23-.02.49-.04.78-.02.29-.03.57-.04.84,0,.27-.03.51-.06.72-.06.69-.22,1.24-.46,1.67s-.59.74-1.06.96c-.46.22-1.08.35-1.85.4-1.09.08-2.18.08-3.26,0-.67-.03-1.21-.17-1.62-.41-.41-.24-.71-.59-.9-1.04-.19-.46-.29-1.05-.29-1.79v-6.31h2.52Z"/>
    </g>
    <g>
      <path class="cls-1" d="M151.19,169.41l-1.22-2.71c1.06-1.26,2.1-2.92,3.14-4.96s1.88-4.07,2.52-6.08l2.5.77c-.83,2.45-1.83,4.76-2.99,6.94-1.16,2.18-2.48,4.19-3.95,6.05ZM155.92,160.73v16.92h-2.54v-15.72l2.54-1.2ZM156.85,163.32l14.81-1.37.19,2.52-14.78,1.34-.22-2.5ZM160.93,155.73h2.59c.02.26.03.58.05.96.02.38.03.82.05,1.3l.1,2.5c.19,3.3.56,6.06,1.1,8.3s1.14,3.82,1.8,4.75c.3.42.57.7.79.85.22.15.45.23.67.23.22-.02.42-.14.58-.36.16-.22.32-.66.48-1.32.24-.88.44-1.8.6-2.76l2.21,1.03c-.21,1.25-.47,2.38-.79,3.41-.3,1.04-.72,1.79-1.24,2.24-.52.46-1.13.68-1.84.68-.64,0-1.24-.19-1.81-.56-.57-.38-1.17-1-1.81-1.88-.88-1.3-1.59-3.14-2.14-5.52s-.93-5.45-1.15-9.19l-.05-.84c-.03-.67-.07-1.36-.11-2.05-.04-.7-.07-1.28-.08-1.76ZM164.87,157.87l1.44-1.7c.58.42,1.27.97,2.09,1.66.82.69,1.43,1.22,1.85,1.61l-1.58,1.9c-.42-.45-1.02-1.04-1.82-1.76-.8-.73-1.46-1.29-1.97-1.69Z"/>
      <path class="cls-1" d="M175.28,160.29l-.17-2.57c2.99-.08,6.33-.27,10.01-.56s6.78-.64,9.29-1.04l.36,2.52c-2.38.37-5.37.7-8.96.98-3.59.29-7.1.51-10.52.67ZM194.03,162.69v9.26c0,.85-.1,1.5-.3,1.94-.2.45-.52.77-.96.96-.44.19-1.06.3-1.86.31-.98.02-1.85-.02-2.62-.12l-.48-2.47c.91.13,1.71.19,2.4.19.34-.02.59-.06.76-.14.17-.08.28-.23.35-.46.06-.22.1-.57.1-1.03v-5.98h-12.36v10.06h-2.59v-12.53h17.57ZM183.92,158.45h2.57v19.25h-2.57v-19.25Z"/>
    </g>
    <g>
      <path class="cls-1" d="M251.07,166.25l-1.2-2.59c2.22-.99,4.26-2.23,6.12-3.71,1.86-1.48,3.27-3,4.25-4.55h2.09c1.07,1.68,2.5,3.22,4.27,4.62,1.78,1.4,3.81,2.6,6.1,3.61l-1.32,2.54c-2.18-1.07-4.12-2.26-5.82-3.56-1.7-1.3-3.12-2.69-4.26-4.16-1.09,1.38-2.52,2.76-4.28,4.14s-3.75,2.6-5.94,3.66ZM253.16,167.59h16.15v10.01h-2.62v-7.63h-10.87v7.61h-2.66v-9.98ZM254.82,174.02h12.86v2.4h-12.86v-2.4ZM255.23,162.79h12.02v2.4h-12.02v-2.4Z"/>
      <path class="cls-1" d="M274.81,165.41l-.55-2.42c.26-.1.45-.19.58-.28s.25-.2.36-.32c.64-.86,1.3-1.89,1.97-3.08.67-1.19,1.3-2.44,1.9-3.76l2.23,1.15c-1.14,2.38-2.34,4.46-3.6,6.22l1.9-.36c.32-.05.64-.1.95-.16.31-.06.62-.12.92-.18l-.84,2.18c-.32.05-.64.1-.97.16-.33.06-.66.12-1,.18l-1.97.34c-.16.02-.31.04-.46.07-.14.03-.29.06-.43.07-.16.03-.32.06-.49.1-.17.03-.33.06-.49.1ZM274.91,177.02l-.48-2.47c2.48-.48,5.24-1.09,8.28-1.82.18-.03.35-.07.53-.12.18-.05.35-.1.53-.14l.17,2.64c-3.63.85-6.64,1.49-9.02,1.92ZM275.34,171.69l-.53-2.52c.37-.06.68-.18.94-.34.26-.16.49-.38.7-.65.94-1.2,1.98-2.68,3.12-4.44s1.95-3.14,2.45-4.13l2.04,1.15c-.7,1.3-1.5,2.63-2.4,4.01-.9,1.38-1.8,2.67-2.71,3.89l2.16-.5c.7-.16,1.42-.33,2.14-.5l.05,2.38c-.51.1-1.03.2-1.55.31-.52.11-1.04.22-1.55.34-.59.13-1.18.25-1.76.37s-1.17.24-1.76.37c-.27.06-.5.1-.67.12l-.65.14ZM285.44,165.12l-2.26-1.22c.86-1.34,1.6-2.73,2.2-4.15s1.1-2.86,1.5-4.32l2.42.65c-.38,1.49-.91,3.02-1.57,4.6s-1.43,3.06-2.29,4.45ZM285.08,166.51l1.94-1.34c.53.64,1.11,1.41,1.74,2.32.63.9,1.21,1.76,1.74,2.56l-2.09,1.42c-.46-.77-1.02-1.63-1.66-2.58s-1.2-1.74-1.68-2.36ZM286.95,159.12h8.3c-.02,5.15-.21,10.18-.58,15.1-.06.8-.2,1.42-.42,1.87-.22.45-.56.77-1.04.97-.48.2-1.15.3-2.02.3-1.2.02-2.3-.02-3.29-.12l-.48-2.59c.85.13,1.78.2,2.81.22.48,0,.84-.05,1.09-.14s.42-.27.53-.53c.1-.25.18-.64.23-1.15.32-4.02.48-7.79.48-11.33h-6.12l.5-2.59Z"/>
    </g>
  </g>
  <g>
    <g>
      <rect class="cls-9" x="42.35" y="227.45" width="188.18" height="46.03" rx="23.01" ry="23.01"/>
      <rect class="cls-11" x="42.43" y="227.45" width="100.81" height="46.03" rx="23.01" ry="23.01"/>
      <g>
        <path d="M72.05,245.49v-2.18h19.08v2.18h-19.08ZM73.58,258.39v-10.58h16.06v7.66c0,.76-.09,1.35-.27,1.77-.18.42-.48.72-.89.9-.41.18-.98.28-1.72.31-.73,0-1.44-.04-2.12-.13l-.5-2.37c.78.1,1.47.15,2.07.15.32,0,.55-.04.7-.11s.25-.2.29-.39c.04-.19.06-.49.06-.91v-4.64h-11.38v8.33h-2.33ZM79.52,241.08l2.44-.47c.13.27.31.72.54,1.33.23.61.42,1.14.56,1.59l-2.33.67c-.06-.17-.18-.52-.37-1.06-.16-.42-.31-.81-.45-1.17-.14-.36-.27-.65-.39-.89ZM80.45,260.73v-16.38h2.31v16.38h-2.31Z"/>
        <path d="M93.85,252.95l-1.01-2.5c.93-1.24,1.85-2.73,2.73-4.47.89-1.74,1.59-3.46,2.13-5.16l2.18.63c-.68,2.07-1.51,4.06-2.49,5.96-.99,1.9-2.16,3.75-3.53,5.55ZM97.93,245.51v15.17h-2.2v-14.12l2.2-1.06ZM99.38,251.01l-1.14-2.24c1.6-1.15,2.94-2.4,4.04-3.73,1.09-1.34,1.94-2.78,2.55-4.32h1.88c.7,1.68,1.63,3.19,2.78,4.53,1.15,1.34,2.48,2.43,3.99,3.28l-1.12,2.22c-1.57-1.02-2.88-2.11-3.94-3.27-1.06-1.16-1.93-2.47-2.62-3.94-.65,1.34-1.47,2.59-2.46,3.76-.99,1.17-2.31,2.4-3.95,3.71ZM100.78,260.9l-1.92-1.45c.82-.88,1.44-1.65,1.85-2.33.41-.68.69-1.41.85-2.2.16-.79.24-1.82.24-3.09v-3.07h2.2v3.02c0,1.53-.09,2.76-.26,3.7-.17.94-.48,1.81-.93,2.6-.45.79-1.12,1.73-2.03,2.81ZM107.47,248.81h2.18v11.83h-2.18v-11.83Z"/>
      </g>
      <g>
        <path d="M162.05,260.79h-2.09v-18.93h6.43v2.03l-1.51,4.62c1.05,1.71,1.58,3.4,1.58,5.07,0,.83-.09,1.49-.26,1.97s-.44.83-.79,1.05-.81.34-1.37.37c-.43.01-.86,0-1.27-.06l-.43-2.09c.3.07.67.11,1.1.11.35,0,.59-.13.73-.38.14-.25.22-.71.22-1.37,0-.58-.13-1.23-.4-1.96-.27-.73-.65-1.48-1.16-2.25l1.43-5.05h-3.22l1.01-.97v17.85ZM167.64,260.92l-.97-1.96c.3-.13.49-.26.57-.4.08-.14.12-.36.12-.66v-16.04h10.1v9.89h-8.98v-1.99h6.84v-5.89h-5.85v13.99c.24-.1.49-.21.73-.31s.48-.21.71-.31l1.47-.63.3,2.14c-.26.1-.52.21-.79.31s-.53.21-.79.31c-.69.27-1.48.62-2.37,1.04-.1.06-.2.11-.29.15-.09.04-.18.09-.27.13-.13.04-.31.12-.54.24ZM168.46,245.83h7.73v2.03h-7.73v-2.03ZM170.98,251.08l1.94-.17c.43,1.35.9,2.48,1.4,3.39.5.91,1.14,1.69,1.92,2.36.78.67,1.77,1.27,2.98,1.8l-1.32,1.94c-1.32-.71-2.42-1.48-3.28-2.33-.86-.85-1.58-1.83-2.15-2.94-.57-1.11-1.07-2.46-1.5-4.06ZM174.44,256.43l-1.01-1.49c1.31-.81,2.6-1.76,3.86-2.85l1.21,1.62c-1.37,1.04-2.72,1.94-4.06,2.72Z"/>
        <path d="M181.36,253.11l-1.01-2.5c.93-1.24,1.85-2.73,2.73-4.47.89-1.74,1.59-3.46,2.13-5.16l2.18.63c-.68,2.07-1.51,4.06-2.49,5.96-.99,1.9-2.16,3.75-3.53,5.55ZM185.44,245.66v15.17h-2.2v-14.12l2.2-1.06ZM186.89,251.17l-1.14-2.24c1.6-1.15,2.94-2.4,4.04-3.73,1.09-1.34,1.94-2.78,2.55-4.32h1.88c.7,1.68,1.63,3.19,2.78,4.53,1.15,1.34,2.48,2.43,3.99,3.28l-1.12,2.22c-1.57-1.02-2.88-2.11-3.94-3.27-1.06-1.16-1.93-2.47-2.62-3.94-.65,1.34-1.47,2.59-2.46,3.76-.99,1.17-2.31,2.4-3.95,3.71ZM188.29,261.05l-1.92-1.45c.82-.88,1.44-1.65,1.85-2.33.41-.68.69-1.41.85-2.2.16-.79.24-1.82.24-3.09v-3.07h2.2v3.02c0,1.53-.09,2.76-.26,3.7-.17.94-.48,1.81-.93,2.6-.45.79-1.12,1.73-2.03,2.81ZM194.98,248.96h2.18v11.83h-2.18v-11.83Z"/>
      </g>
    </g>
    <g>
      <circle cx="513.13" cy="250.46" r="4.07"/>
      <circle cx="529.87" cy="250.46" r="4.07"/>
      <path class="cls-11" d="M546.76,255.9l-.15.87-.15-.87c-.46-2.71-2.58-4.83-5.29-5.29l-.87-.15.87-.15c2.71-.46,4.83-2.58,5.29-5.29l.15-.87.15.87c.46,2.71,2.58,4.83,5.29,5.29l.87.15-.87.15c-2.71.46-4.83,2.58-5.29,5.29Z"/>
    </g>
    <g>
      <path d="M458.46,257.91h-.39c-3.17,0-5.75-2.58-5.75-5.75v-6.04c0-3.17,2.58-5.75,5.75-5.75h.39c3.17,0,5.75,2.58,5.75,5.75v6.04c0,3.17-2.58,5.75-5.75,5.75ZM458.07,243.88c-1.23,0-2.23,1-2.23,2.23v6.04c0,1.23,1,2.23,2.23,2.23h.39c1.23,0,2.23-1,2.23-2.23v-6.04c0-1.23-1-2.23-2.23-2.23h-.39Z"/>
      <path d="M472.27,260.42h-.39c-3.17,0-5.75-2.58-5.75-5.75v-6.04c0-3.17,2.58-5.75,5.75-5.75h.39c3.17,0,5.75,2.58,5.75,5.75v6.04c0,3.17-2.58,5.75-5.75,5.75ZM471.88,246.4c-1.23,0-2.23,1-2.23,2.23v6.04c0,1.23,1,2.23,2.23,2.23h.39c1.23,0,2.23-1,2.23-2.23v-6.04c0-1.23-1-2.23-2.23-2.23h-.39Z"/>
      <path d="M458.27,242.81c-.97,0-1.76-.79-1.76-1.76v-3.08c0-.97.79-1.76,1.76-1.76s1.76.79,1.76,1.76v3.08c0,.97-.79,1.76-1.76,1.76Z"/>
      <path d="M472.07,264.82c-.97,0-1.76-.79-1.76-1.76v-3.08c0-.97.79-1.76,1.76-1.76s1.76.79,1.76,1.76v3.08c0,.97-.79,1.76-1.76,1.76Z"/>
      <path d="M472.07,245.34c-.97,0-1.76-.79-1.76-1.76v-5.71c0-.97.79-1.76,1.76-1.76s1.76.79,1.76,1.76v5.71c0,.97-.79,1.76-1.76,1.76Z"/>
      <path d="M458.27,264.69c-.97,0-1.76-.79-1.76-1.76v-5.71c0-.97.79-1.76,1.76-1.76s1.76.79,1.76,1.76v5.71c0,.97-.79,1.76-1.76,1.76Z"/>
    </g>
  </g>
  <g>
    <path class="cls-9" d="M544.91,720.19H50.36c-12.18,0-22.09-9.91-22.09-22.09v-361.1c0-12.18,9.91-22.09,22.09-22.09h494.55c12.18,0,22.09,9.91,22.09,22.09v361.1c0,12.18-9.91,22.09-22.09,22.09ZM50.36,316.9c-11.08,0-20.09,9.01-20.09,20.09v361.1c0,11.08,9.01,20.09,20.09,20.09h494.55c11.08,0,20.09-9.01,20.09-20.09v-361.1c0-11.08-9.01-20.09-20.09-20.09H50.36Z"/>
    <g>
      <path class="cls-7" d="M56.11,375.85l-1.03-1.56c1.57-.63,2.75-1.23,3.55-1.79.8-.56,1.37-1.2,1.71-1.91.34-.71.55-1.66.64-2.85.01-.06.02-.13.02-.21v-.25l.02-.46h1.78l-.02.48c-.01.1-.02.19-.02.28s0,.16-.02.23c-.12,1.47-.38,2.65-.79,3.54s-1.06,1.68-1.95,2.35c-.89.67-2.18,1.39-3.88,2.16ZM57.19,359.31h15.09v8.25h-15.09v-8.25ZM58.9,360.98v4.91h11.66v-4.91h-11.66ZM59.08,356.23l1.45-.95c.19.26.39.54.58.83.2.29.4.58.61.89.19.26.37.53.55.79s.34.53.51.79l-1.54.92c-.04-.07-.4-.65-1.08-1.72-.54-.82-.9-1.34-1.08-1.56ZM67.33,360.61l-1.36-.99c.42-.57.93-1.29,1.51-2.16s1.05-1.59,1.42-2.18l1.54.86c-.13.22-.29.47-.47.74-.18.27-.38.56-.58.87-.35.51-.7,1.02-1.06,1.51-.35.49-.68.94-.99,1.35ZM67.9,366.79v5.21c0,.44.03.77.09.99.06.22.18.39.36.51s.47.2.85.24c.65.07,1.29.07,1.94,0,.44-.04.76-.11.96-.21s.34-.25.42-.46c.08-.21.13-.55.14-1,.01-.15.03-.32.04-.53s.03-.43.04-.66c.03-.65.04-1.03.04-1.17l1.63.33c0,.15,0,.33-.01.56,0,.23-.02.47-.03.74-.02.28-.03.54-.03.79,0,.25-.03.47-.06.66-.06.6-.19,1.09-.38,1.45s-.5.65-.89.85c-.4.2-.92.32-1.58.36-.95.07-1.91.07-2.86,0-.57-.03-1.03-.15-1.39-.36-.35-.21-.61-.52-.77-.92s-.24-.92-.24-1.55v-5.83h1.74Z"/>
      <path class="cls-7" d="M77.03,368.64l-.44-1.85c.79-.25,1.8-.61,3.04-1.08,1.23-.47,2.28-.89,3.15-1.28l.37,1.83c-.51.19-1.06.4-1.64.62-.58.22-1.17.45-1.77.68-1.04.4-1.94.76-2.71,1.08ZM77.05,359.73h6.01v1.72h-6.01v-1.72ZM78.53,373.74c.37,0,.61-.09.73-.26.12-.18.18-.5.18-.97v-16.79h1.69v17.4c0,.85-.16,1.44-.48,1.78-.32.34-.89.51-1.72.51-.56,0-1.03-.04-1.43-.11l-.33-1.74c.42.12.88.18,1.36.18ZM83.1,375.72l-.9-1.72c1.64-.5,2.95-1.05,3.93-1.65.97-.6,1.69-1.29,2.13-2.08.45-.79.67-1.71.67-2.78v-5.08h1.63v5.15c0,1.42-.26,2.63-.79,3.61s-1.33,1.83-2.41,2.54-2.5,1.38-4.26,2.01ZM82.46,367.56h14.54v1.65h-14.54v-1.65ZM83.63,363.64l-1.06-1.3c1.14-1.11,2.09-2.23,2.85-3.33.75-1.11,1.4-2.29,1.95-3.55l1.63.48c-.56,1.41-1.24,2.71-2.06,3.89-.81,1.19-1.92,2.46-3.31,3.81ZM84.42,361.9h10.89v6.56h-1.58v-4.93h-7.7v4.8h-1.61v-6.42ZM87.13,357.53h6.89v1.47l-2.77,3.89-1.65-.66,2.29-3.12h-5.28l.53-1.58ZM89.04,368.61l1.45-.31c.28,1.31.97,2.43,2.09,3.38,1.11.95,2.58,1.69,4.4,2.23l-.75,1.74c-1.96-.66-3.55-1.58-4.76-2.75-1.21-1.17-2.02-2.6-2.43-4.29Z"/>
      <path class="cls-7" d="M99.67,362.76l-.79-1.54c1.19-.85,2.3-1.8,3.34-2.84s1.94-2.1,2.68-3.19l1.41.84c-.89,1.33-1.85,2.52-2.86,3.54-1.01,1.03-2.27,2.09-3.78,3.19ZM99.8,375.7l-.73-1.65c2.35-.44,4.14-.89,5.39-1.34,1.25-.45,2.1-.92,2.56-1.4.46-.48.74-1.03.83-1.66.03-.12.05-.24.07-.36.01-.12.03-.25.04-.38.01-.13.03-.26.04-.4s.03-.26.04-.37h1.91c-.01.12-.03.23-.03.35,0,.12-.02.23-.03.35-.04.48-.1.92-.18,1.3-.18.88-.52,1.61-1.04,2.2s-1.47,1.16-2.85,1.71c-1.38.55-3.39,1.1-6.03,1.66ZM101.89,365.78h14.23v5.81h-1.74v-4.2h-10.76v4.2h-1.74v-5.81ZM104.35,357.99v6.78h-1.74v-6.4l1.74-.37ZM105.61,362.48l-.53-1.69c2.35-.59,4.45-1.24,6.3-1.97,1.86-.73,3.71-1.59,5.58-2.61l.77,1.56c-1.8,1.01-3.68,1.9-5.64,2.66-1.96.76-4.12,1.45-6.48,2.05ZM107.98,371.91l.73-1.45c.85.28,2.12.72,3.81,1.33s3.26,1.19,4.73,1.75c.28.1.54.2.79.29.25.09.48.18.7.26l-.7,1.72c-.97-.4-2.52-1-4.64-1.83-2.13-.82-3.93-1.51-5.41-2.07ZM111.26,355.43v5.81c0,.56.07.93.2,1.11.13.18.42.31.88.39,1.14.16,2.22.16,3.23,0,.35-.06.61-.13.78-.21.17-.08.29-.22.36-.41s.12-.48.13-.86c.04-.75.07-1.33.07-1.74l1.67.4c0,.62-.03,1.28-.09,1.98-.04.62-.15,1.09-.33,1.42s-.44.57-.78.71-.83.25-1.44.31c-1.48.16-2.96.16-4.44,0-.72-.07-1.24-.29-1.57-.66-.33-.37-.5-.97-.5-1.8v-6.45h1.83Z"/>
      <path class="cls-7" d="M121.8,359.42l-.13-1.76c2.82-.09,5.93-.27,9.34-.54s6.24-.59,8.5-.96l.26,1.74c-2.19.34-4.94.64-8.27.9-3.33.26-6.56.47-9.7.62ZM138.74,362.17v8.14c0,.72-.08,1.28-.25,1.67-.17.4-.44.68-.81.85s-.9.25-1.57.25c-.94,0-1.74-.04-2.4-.11l-.31-1.72c.79.12,1.53.18,2.22.18.38,0,.66-.04.85-.12.18-.08.31-.24.38-.47s.11-.6.11-1.1v-5.87h-11.99v9.35h-1.78v-11.04h15.55ZM130.05,358.01h1.76v17.64h-1.76v-17.64Z"/>
    </g>
    <g>
      <path class="cls-7" d="M375.21,426.13l-.82-1.62c1.99-.9,3.67-1.87,5.06-2.93,1.39-1.06,2.61-2.3,3.67-3.73h1.76c1.02,1.39,2.25,2.62,3.67,3.72,1.43,1.09,3.15,2.11,5.17,3.04l-.88,1.6c-1.88-.94-3.59-2-5.13-3.17-1.55-1.18-2.78-2.37-3.68-3.59-1,1.29-2.22,2.49-3.69,3.59-1.46,1.11-3.17,2.13-5.13,3.09ZM375.73,436.49l-1.09-1.37c.81-.6,1.63-1.32,2.47-2.15.83-.83,1.56-1.67,2.17-2.51l1.32,1.09c-.6.78-1.35,1.62-2.24,2.51-.89.89-1.77,1.7-2.64,2.43ZM375.27,428.11h17.47v1.68h-17.47v-1.68ZM378.88,423.97h10.37v1.64h-10.37v-1.64ZM381.8,435.12c.42.01.73-.02.93-.1s.34-.23.42-.43.12-.5.12-.89v-8.65h1.76v9.07c0,1.01-.19,1.71-.57,2.12s-1.04.6-2,.59c-.88-.03-1.65-.08-2.31-.17l-.38-1.74c.78.13,1.46.2,2.02.21ZM387.18,431.78l1.05-1.26c.63.48,1.47,1.16,2.52,2.04s1.94,1.65,2.67,2.31l-1.13,1.34c-1.69-1.53-2.96-2.65-3.8-3.36-.73-.62-1.16-.97-1.3-1.07Z"/>
      <path class="cls-7" d="M403.91,423.13v1.36c-.9,1.42-1.95,2.6-3.17,3.56-1.22.96-2.85,1.82-4.89,2.59l-.61-1.37c1.78-.64,3.22-1.35,4.34-2.13,1.11-.78,2.03-1.69,2.76-2.74h-4.43l.46-1.28h5.54ZM396.19,427.04l-.88-1.15c.71-.55,1.41-1.23,2.08-2.06.67-.83,1.2-1.6,1.58-2.33l1.32.53c-.45.85-1.03,1.71-1.73,2.58-.71.87-1.5,1.68-2.36,2.44ZM395.83,419.41h8.59v3h-1.34v-1.64h-5.88v2h-1.37v-3.36ZM396.77,425.61l.86-.92c1.18.67,2.16,1.24,2.94,1.7,1.79,1.02,3.24,1.9,4.35,2.62l-.82,1.28c-.7-.5-1.62-1.13-2.75-1.87-1.13-.74-2.18-1.41-3.15-2-.99-.57-1.47-.85-1.43-.82ZM403.54,436.17h-6.53v-5.61h6.53v5.61ZM398.35,431.89v2.98h3.86v-2.98h-3.86ZM398.96,417.92l1.37-.4c.36.76.68,1.55.94,2.39l-1.26.38c-.34-.88-.69-1.67-1.05-2.37ZM405.28,436.76l-.95-1.32c1.39-.69,2.4-1.35,3.04-2.01.64-.65,1.05-1.35,1.23-2.09s.26-1.76.26-3.07v-3.11h1.39v3.32c0,1.46-.11,2.63-.34,3.52-.22.89-.69,1.71-1.4,2.46s-1.79,1.52-3.24,2.3ZM405.15,418.68h9.07v1.47h-9.07v-1.47ZM405.64,422.56h7.92v9.51h-1.39v-8.11h-5.15v8.08h-1.39v-9.49ZM409.9,423.03l-1.57-.02c.14-.46.27-1.01.4-1.64s.22-1.18.27-1.66l1.62.04c-.06.38-.15.89-.29,1.54-.14.65-.28,1.23-.42,1.73ZM409.1,432.16l.8-1.05c.57.45,1.35,1.11,2.32,2,.97.88,1.77,1.63,2.4,2.25l-1.05,1.2c-.78-.81-1.59-1.63-2.43-2.45-.83-.82-1.52-1.47-2.05-1.94Z"/>
      <path class="cls-7" d="M418.17,426.68c-.32,0-.6-.12-.83-.36-.23-.24-.35-.52-.35-.86s.12-.62.35-.86c.23-.24.51-.36.83-.36s.62.12.85.36c.23.24.35.53.35.86s-.12.62-.35.86c-.23.24-.51.36-.85.36ZM418.17,435.63c-.32,0-.6-.12-.83-.36-.23-.24-.35-.53-.35-.86s.12-.62.35-.86c.23-.24.51-.36.83-.36s.62.12.85.36c.23.24.35.52.35.86s-.12.62-.35.86c-.23.24-.51.36-.85.36Z"/>
      <path class="cls-7" d="M437.51,427.71c0,2.6-.43,4.57-1.29,5.91s-2.1,2.01-3.71,2.01-2.83-.67-3.69-2.02c-.86-1.34-1.29-3.31-1.29-5.9s.43-4.58,1.29-5.93c.86-1.35,2.09-2.03,3.69-2.03s2.84.67,3.71,2.02,1.29,3.33,1.29,5.94ZM429.53,427.71c0,2.09.24,3.64.72,4.66.48,1.02,1.24,1.53,2.26,1.53s1.78-.51,2.27-1.52c.49-1.01.74-2.57.74-4.67s-.25-3.69-.74-4.71-1.25-1.54-2.27-1.54-1.77.51-2.26,1.54-.72,2.6-.72,4.71Z"/>
      <path class="cls-7" d="M440.43,435.63c-.32,0-.6-.12-.83-.37-.23-.24-.35-.53-.35-.85s.12-.62.35-.86c.23-.24.51-.36.83-.36s.62.12.85.36c.23.24.35.52.35.86s-.12.62-.35.86c-.23.24-.51.36-.85.36Z"/>
      <path class="cls-7" d="M453.37,427.71c0,2.6-.43,4.57-1.29,5.91s-2.1,2.01-3.71,2.01-2.83-.67-3.69-2.02c-.86-1.34-1.29-3.31-1.29-5.9s.43-4.58,1.29-5.93c.86-1.35,2.09-2.03,3.69-2.03s2.84.67,3.71,2.02,1.29,3.33,1.29,5.94ZM445.39,427.71c0,2.09.24,3.64.72,4.66.48,1.02,1.24,1.53,2.26,1.53s1.78-.51,2.27-1.52c.49-1.01.74-2.57.74-4.67s-.25-3.69-.74-4.71-1.25-1.54-2.27-1.54-1.77.51-2.26,1.54-.72,2.6-.72,4.71Z"/>
      <path class="cls-7" d="M465.34,427.71c0,2.6-.43,4.57-1.29,5.91s-2.1,2.01-3.71,2.01-2.83-.67-3.69-2.02c-.86-1.34-1.29-3.31-1.29-5.9s.43-4.58,1.29-5.93c.86-1.35,2.09-2.03,3.69-2.03s2.84.67,3.71,2.02,1.29,3.33,1.29,5.94ZM457.36,427.71c0,2.09.24,3.64.72,4.66.48,1.02,1.24,1.53,2.26,1.53s1.78-.51,2.27-1.52c.49-1.01.74-2.57.74-4.67s-.25-3.69-.74-4.71-1.25-1.54-2.27-1.54-1.77.51-2.26,1.54-.72,2.6-.72,4.71Z"/>
    </g>
    <g>
      <path class="cls-7" d="M442.93,667.76l-.82-1.62c1.99-.9,3.67-1.87,5.06-2.93,1.39-1.06,2.61-2.3,3.67-3.73h1.76c1.02,1.39,2.25,2.62,3.67,3.72,1.43,1.09,3.15,2.11,5.17,3.04l-.88,1.6c-1.88-.94-3.59-2-5.13-3.17-1.55-1.18-2.78-2.37-3.68-3.59-1,1.29-2.22,2.49-3.69,3.59-1.46,1.11-3.17,2.13-5.13,3.09ZM443.46,678.11l-1.09-1.37c.81-.6,1.63-1.32,2.47-2.15.83-.83,1.56-1.67,2.17-2.51l1.32,1.09c-.6.78-1.35,1.62-2.24,2.51-.89.89-1.77,1.7-2.64,2.43ZM443,669.74h17.47v1.68h-17.47v-1.68ZM446.61,665.6h10.37v1.64h-10.37v-1.64ZM449.53,676.75c.42.01.73-.02.93-.1s.34-.23.42-.43.12-.5.12-.89v-8.65h1.76v9.07c0,1.01-.19,1.71-.57,2.12s-1.04.6-2,.59c-.88-.03-1.65-.08-2.31-.17l-.38-1.74c.78.13,1.46.2,2.02.21ZM454.9,673.41l1.05-1.26c.63.48,1.47,1.16,2.52,2.04s1.94,1.65,2.67,2.31l-1.13,1.34c-1.69-1.53-2.96-2.65-3.8-3.36-.73-.62-1.16-.97-1.3-1.07Z"/>
      <path class="cls-7" d="M471.64,664.76v1.36c-.9,1.42-1.95,2.6-3.17,3.56-1.22.96-2.85,1.82-4.89,2.59l-.61-1.37c1.78-.64,3.22-1.35,4.34-2.13,1.11-.78,2.03-1.69,2.76-2.74h-4.43l.46-1.28h5.54ZM463.91,668.66l-.88-1.15c.71-.55,1.41-1.23,2.08-2.06.67-.83,1.2-1.6,1.58-2.33l1.32.53c-.45.85-1.03,1.71-1.73,2.58-.71.87-1.5,1.68-2.36,2.44ZM463.56,661.04h8.59v3h-1.34v-1.64h-5.88v2h-1.37v-3.36ZM464.5,667.24l.86-.92c1.18.67,2.16,1.24,2.94,1.7,1.79,1.02,3.24,1.9,4.35,2.62l-.82,1.28c-.7-.5-1.62-1.13-2.75-1.87-1.13-.74-2.18-1.41-3.15-2-.99-.57-1.47-.85-1.43-.82ZM471.26,677.8h-6.53v-5.61h6.53v5.61ZM466.08,673.52v2.98h3.86v-2.98h-3.86ZM466.69,659.55l1.37-.4c.36.76.68,1.55.94,2.39l-1.26.38c-.34-.88-.69-1.67-1.05-2.37ZM473.01,678.39l-.95-1.32c1.39-.69,2.4-1.35,3.04-2.01.64-.65,1.05-1.35,1.23-2.09s.26-1.76.26-3.07v-3.11h1.39v3.32c0,1.46-.11,2.63-.34,3.52-.22.89-.69,1.71-1.4,2.46s-1.79,1.52-3.24,2.3ZM472.88,660.31h9.07v1.47h-9.07v-1.47ZM473.36,664.19h7.92v9.51h-1.39v-8.11h-5.15v8.08h-1.39v-9.49ZM477.63,664.65l-1.57-.02c.14-.46.27-1.01.4-1.64s.22-1.18.27-1.66l1.62.04c-.06.38-.15.89-.29,1.54-.14.65-.28,1.23-.42,1.73ZM476.83,673.79l.8-1.05c.57.45,1.35,1.11,2.32,2,.97.88,1.77,1.63,2.4,2.25l-1.05,1.2c-.78-.81-1.59-1.63-2.43-2.45-.83-.82-1.52-1.47-2.05-1.94Z"/>
      <path class="cls-7" d="M485.9,668.31c-.32,0-.6-.12-.83-.36-.23-.24-.35-.52-.35-.86s.12-.62.35-.86c.23-.24.51-.36.83-.36s.62.12.85.36c.23.24.35.53.35.86s-.12.62-.35.86c-.23.24-.51.36-.85.36ZM485.9,677.25c-.32,0-.6-.12-.83-.36-.23-.24-.35-.53-.35-.86s.12-.62.35-.86c.23-.24.51-.36.83-.36s.62.12.85.36c.23.24.35.52.35.86s-.12.62-.35.86c-.23.24-.51.36-.85.36Z"/>
      <path class="cls-7" d="M505.24,669.34c0,2.6-.43,4.57-1.29,5.91s-2.1,2.01-3.71,2.01-2.83-.67-3.69-2.02c-.86-1.34-1.29-3.31-1.29-5.9s.43-4.58,1.29-5.93c.86-1.35,2.09-2.03,3.69-2.03s2.84.67,3.71,2.02,1.29,3.33,1.29,5.94ZM497.26,669.34c0,2.09.24,3.64.72,4.66.48,1.02,1.24,1.53,2.26,1.53s1.78-.51,2.27-1.52c.49-1.01.74-2.57.74-4.67s-.25-3.69-.74-4.71-1.25-1.54-2.27-1.54-1.77.51-2.26,1.54-.72,2.6-.72,4.71Z"/>
      <path class="cls-7" d="M508.16,677.25c-.32,0-.6-.12-.83-.37-.23-.24-.35-.53-.35-.85s.12-.62.35-.86c.23-.24.51-.36.83-.36s.62.12.85.36c.23.24.35.52.35.86s-.12.62-.35.86c-.23.24-.51.36-.85.36Z"/>
      <path class="cls-7" d="M521.1,669.34c0,2.6-.43,4.57-1.29,5.91s-2.1,2.01-3.71,2.01-2.83-.67-3.69-2.02c-.86-1.34-1.29-3.31-1.29-5.9s.43-4.58,1.29-5.93c.86-1.35,2.09-2.03,3.69-2.03s2.84.67,3.71,2.02,1.29,3.33,1.29,5.94ZM513.12,669.34c0,2.09.24,3.64.72,4.66.48,1.02,1.24,1.53,2.26,1.53s1.78-.51,2.27-1.52c.49-1.01.74-2.57.74-4.67s-.25-3.69-.74-4.71-1.25-1.54-2.27-1.54-1.77.51-2.26,1.54-.72,2.6-.72,4.71Z"/>
      <path class="cls-7" d="M533.07,669.34c0,2.6-.43,4.57-1.29,5.91s-2.1,2.01-3.71,2.01-2.83-.67-3.69-2.02c-.86-1.34-1.29-3.31-1.29-5.9s.43-4.58,1.29-5.93c.86-1.35,2.09-2.03,3.69-2.03s2.84.67,3.71,2.02,1.29,3.33,1.29,5.94ZM525.09,669.34c0,2.09.24,3.64.72,4.66.48,1.02,1.24,1.53,2.26,1.53s1.78-.51,2.27-1.52c.49-1.01.74-2.57.74-4.67s-.25-3.69-.74-4.71-1.25-1.54-2.27-1.54-1.77.51-2.26,1.54-.72,2.6-.72,4.71Z"/>
    </g>
    <path class="cls-7" d="M54.99,611.87h19.89v1.65h-19.89v-1.65ZM55.71,595.7h18.46v1.69h-18.46v-1.69ZM56.7,604.28l-.46-1.74c.54-.1.97-.26,1.28-.48l.26-.2c.73-.62,1.62-1.47,2.65-2.55,1.03-1.08,1.94-2.1,2.72-3.06l1.98.4c-.76.95-1.65,1.97-2.66,3.06-1.01,1.09-1.9,1.98-2.66,2.68,1.92-.16,3.85-.32,5.78-.47,1.93-.15,3.85-.3,5.77-.45l.35,1.63c-2.02.15-4.05.3-6.07.46-2.02.16-4.05.32-6.07.48-.23.03-.47.05-.71.07-.24.02-.48.03-.71.04-.24.01-.47.04-.71.07-.24.03-.48.05-.71.07ZM56.61,606.81h16.65v1.63h-16.65v-1.63ZM64.09,602.94h1.8v9.53h-1.8v-9.53ZM68.01,598.74l1.47-.92c.59.72,1.32,1.71,2.21,2.97s1.65,2.38,2.28,3.34l-1.54,1.01c-.51-.85-1.24-1.96-2.19-3.33-.95-1.37-1.69-2.39-2.23-3.07Z"/>
    <g>
      <path class="cls-9" d="M458.27,517.28H130.39c-.55,0-1-.45-1-1s.45-1,1-1h327.88c.55,0,1,.45,1,1s-.45,1-1,1Z"/>
      <g>
        <circle cx="293.43" cy="516.28" r="31.17"/>
        <polygon class="cls-11" points="293.43 532.3 307.9 507.24 278.96 507.24 293.43 532.3"/>
      </g>
    </g>
    <g>
      <path class="cls-7" d="M532.87,444.47h-42.56c-3.03,0-5.5-2.47-5.5-5.5v-23.52c0-3.03,2.47-5.5,5.5-5.5h42.56c3.03,0,5.5,2.47,5.5,5.5v23.52c0,3.03-2.47,5.5-5.5,5.5ZM490.32,410.95c-2.48,0-4.5,2.02-4.5,4.5v23.52c0,2.48,2.02,4.5,4.5,4.5h42.56c2.48,0,4.5-2.02,4.5-4.5v-23.52c0-2.48-2.02-4.5-4.5-4.5h-42.56Z"/>
      <g>
        <path class="cls-7" d="M494.24,419.41l5.67,9.13,5.65-9.13h1.53v15.37h-1.83v-11.72l-4.85,7.75h-1.11l-4.89-7.79v11.76h-1.81v-15.37h1.64Z"/>
        <path class="cls-7" d="M514.73,423.63c1.23,0,2.24.38,3.02,1.12s1.18,1.82,1.18,3.2v6.83h-1.57c-.04-.71-.07-1.18-.08-1.39-.34.53-.79.93-1.35,1.21-.57.27-1.21.41-1.94.41s-1.35-.13-1.96-.39c-.61-.26-1.1-.64-1.46-1.16s-.55-1.12-.55-1.84c0-.98.37-1.77,1.11-2.38.74-.61,1.72-.97,2.94-1.07,1.22-.11,2.52.07,3.91.51l-.82.71v-1.13c0-1.02-.21-1.78-.62-2.28s-1.04-.75-1.88-.75c-.67,0-1.23.14-1.68.42-.45.28-.83.69-1.13,1.24l-1.37-.78c.34-.76.89-1.36,1.65-1.82.76-.45,1.63-.68,2.62-.68ZM514.14,433.48c.53,0,1.03-.11,1.48-.32.45-.21.82-.52,1.1-.93.28-.41.42-.91.42-1.48v-.8c-1.08-.28-2.02-.39-2.81-.34s-1.41.26-1.83.61c-.42.35-.63.81-.63,1.39s.21,1.05.63,1.38c.42.33.97.49,1.64.49Z"/>
        <path class="cls-7" d="M520.61,423.88h2.23l2.83,4.03,2.88-4.03h2.04l-3.95,5.42,3.95,5.48h-2.18l-2.81-4.03-2.9,4.03h-2.08l3.99-5.4-3.99-5.5Z"/>
      </g>
    </g>
    <rect class="cls-4" x="383.97" y="348.47" width="34.59" height="34.59" rx="5.18" ry="5.18"/>
    <g>
      <g>
        <path d="M464.09,362.96h8.32v3.5h-8.32v5.1h9.6v3.56h-13.67v-20.5h13.36v3.53h-9.3v4.82Z"/>
        <path d="M481.34,358.23h-6.22v-3.61h16.52v3.61h-6.22v16.89h-4.09v-16.89Z"/>
        <path d="M494.06,354.61h4.06v8.06h9.24v-8.06h4.09v20.5h-4.09v-8.82h-9.24v8.82h-4.06v-20.5Z"/>
      </g>
      <polygon class="cls-11" points="534.73 369.13 539.65 360.6 529.81 360.6 534.73 369.13"/>
    </g>
    <g>
      <g>
        <path d="M449.31,605.3v-11.34h4.1v12.33c0,1.77-.35,3.32-1.05,4.64-.7,1.32-1.71,2.33-3.03,3.02-1.32.7-2.88,1.05-4.69,1.05s-3.4-.35-4.72-1.05c-1.32-.7-2.33-1.71-3.02-3.02-.7-1.32-1.05-2.87-1.05-4.64v-12.33h4.1v11.34c0,2,.41,3.49,1.22,4.47.81.98,1.97,1.47,3.48,1.47s2.64-.49,3.45-1.47c.81-.98,1.22-2.47,1.22-4.47Z"/>
        <path d="M471.51,608.66c0,1.43-.36,2.62-1.07,3.56-.72.94-1.66,1.64-2.83,2.09-1.17.45-2.41.68-3.73.68-1.92,0-3.65-.45-5.19-1.34-1.54-.89-2.57-2.16-3.1-3.8l3.34-1.89c.45,1.07,1.11,1.9,1.98,2.47s1.9.86,3.11.86c.98,0,1.76-.2,2.33-.59s.86-.97.86-1.72c0-.6-.19-1.1-.57-1.48-.38-.39-.85-.7-1.41-.93s-1.35-.5-2.35-.81c-1.34-.4-2.44-.78-3.29-1.16s-1.59-.96-2.21-1.74c-.61-.78-.92-1.8-.92-3.07,0-1.34.35-2.47,1.06-3.41.71-.93,1.64-1.63,2.8-2.09,1.16-.46,2.41-.69,3.75-.69,1.21,0,2.31.18,3.31.55,1,.37,1.84.9,2.52,1.6.68.7,1.14,1.52,1.39,2.46l-3.34,1.89c-.34-.89-.85-1.58-1.53-2.08-.68-.5-1.53-.75-2.54-.75-.92,0-1.67.21-2.25.64-.58.42-.86.99-.86,1.68,0,.53.18.97.54,1.32.36.35.81.63,1.36.85s1.29.47,2.23.75c1.38.4,2.51.8,3.39,1.2s1.64,1.01,2.28,1.81c.63.8.95,1.85.95,3.15Z"/>
        <path d="M481.17,614.66h-6.9v-20.7h6.9c2.02,0,3.84.41,5.47,1.22,1.63.81,2.92,1.99,3.86,3.55.94,1.56,1.41,3.41,1.41,5.56s-.47,4.01-1.41,5.57c-.94,1.57-2.22,2.76-3.85,3.58-1.62.82-3.45,1.23-5.48,1.23ZM480.69,597.44h-2.32v13.71h2.32c1.47,0,2.72-.26,3.75-.79,1.03-.53,1.81-1.31,2.35-2.33s.81-2.28.81-3.75-.27-2.69-.81-3.7c-.54-1.02-1.32-1.8-2.35-2.33s-2.28-.81-3.75-.81Z"/>
        <path d="M504.13,611.23c1,0,1.86-.26,2.59-.79.72-.53,1.3-1.26,1.74-2.21l3.42,1.98c-.32.9-.84,1.72-1.55,2.45-.72.73-1.6,1.3-2.64,1.71-1.05.42-2.2.62-3.46.62-1.83,0-3.5-.45-5-1.34-1.51-.89-2.7-2.15-3.59-3.77-.89-1.62-1.33-3.49-1.33-5.6s.44-3.98,1.33-5.6c.89-1.62,2.08-2.87,3.59-3.76s3.18-1.33,5-1.33c1.26,0,2.42.21,3.46.62,1.05.42,1.93.99,2.64,1.71.72.73,1.23,1.54,1.55,2.45l-3.42,1.98c-.43-.94-1.01-1.68-1.74-2.21-.73-.53-1.59-.79-2.59-.79-1.06,0-2,.28-2.84.83-.84.56-1.49,1.36-1.96,2.42-.47,1.06-.71,2.28-.71,3.67s.24,2.62.71,3.68c.47,1.06,1.13,1.87,1.96,2.43s1.79.85,2.84.85Z"/>
      </g>
      <polygon class="cls-11" points="535.38 608.56 540.31 600.03 530.46 600.03 535.38 608.56"/>
    </g>
    <circle class="cls-6" cx="398.86" cy="605.24" r="25.19"/>
  </g>
  <g>
    <rect class="cls-5" x="29.27" y="1016.17" width="536.74" height="134.47" rx="21.09" ry="21.09"/>
    <g>
      <path class="cls-1" d="M72.41,997.19h-12.59c-2.61,0-4.74-2.13-4.74-4.74v-12.59c0-2.61,2.13-4.74,4.74-4.74h12.59c2.61,0,4.74,2.13,4.74,4.74v12.59c0,2.61-2.13,4.74-4.74,4.74ZM59.82,977.12c-1.51,0-2.74,1.23-2.74,2.74v12.59c0,1.51,1.23,2.74,2.74,2.74h12.59c1.51,0,2.74-1.23,2.74-2.74v-12.59c0-1.51-1.23-2.74-2.74-2.74h-12.59Z"/>
      <g>
        <path class="cls-1" d="M88.21,992.28h14.22v1.46h-14.22v-1.46ZM88.67,983.63h14.74v11.22h-1.55v-9.72h-13.19v-1.49ZM88.99,979l1.15-1.03c.31.27.89.86,1.74,1.79.85.92,1.48,1.63,1.88,2.12l-1.24,1.05c-.4-.52-.96-1.19-1.69-2.01-.73-.82-1.34-1.46-1.83-1.92ZM89.18,987.86h13.44v1.47h-13.44v-1.47ZM95.5,977.43h1.57v7.16h-1.57v-7.16ZM99.98,983.02l-1.13-1.03c.56-.55,1.19-1.21,1.89-1.99.7-.78,1.25-1.44,1.66-1.99l1.21.98c-.41.55-.98,1.23-1.7,2.04-.73.81-1.37,1.48-1.91,2Z"/>
        <path class="cls-1" d="M106.79,979.84h17.17v1.4h-17.17v-1.4ZM115.12,982.92v9.72c0,.78-.14,1.32-.43,1.62s-.79.46-1.5.49c-.55.03-1.09,0-1.63-.06l-.31-1.42c.46.08.95.12,1.47.12.38,0,.63-.07.75-.2.12-.13.17-.4.17-.79v-8.06h-3.98v10.43h-1.47v-11.85h6.93ZM109.15,986.19h5v1.36h-5v-1.36ZM109.17,989.41h4.98v1.36h-4.98v-1.36ZM110.77,977.77l1.47-.42c.33.6.68,1.28,1.05,2.03.06.13.13.25.19.37.06.12.12.23.17.33l-1.4.59-.67-1.34c-.14-.28-.28-.55-.42-.82-.14-.27-.27-.52-.4-.75ZM118.22,980.89l-1.38-.46c.29-.47.59-.97.89-1.49s.6-1.05.89-1.57l1.49.44c-.31.52-.62,1.05-.95,1.59-.33.54-.64,1.03-.95,1.49ZM117.15,983.25h1.38v8.19h-1.38v-8.19ZM119.54,993.32c.55,0,.91-.1,1.08-.29.17-.19.26-.54.26-1.03v-9.51h1.47v9.92c0,.59-.07,1.05-.2,1.38s-.38.57-.73.73c-.35.15-.85.23-1.5.23-.7,0-1.44-.04-2.2-.12l-.27-1.45c.78.1,1.47.15,2.09.15Z"/>
        <path class="cls-1" d="M126.47,994.9l-.71-1.47c2.27-.61,4.13-1.27,5.57-1.98,1.44-.71,2.63-1.54,3.56-2.5s1.75-2.16,2.47-3.6l1.38.71c-.8,1.54-1.7,2.83-2.69,3.87-.99,1.03-2.24,1.95-3.75,2.74-1.51.79-3.46,1.54-5.83,2.24ZM126.3,979.57h16.56v1.53h-16.56v-1.53ZM127.39,987.34l-.92-1.34c.96-.6,1.89-1.28,2.8-2.03s1.73-1.53,2.46-2.32l1.17,1c-.75.8-1.61,1.61-2.56,2.43-.96.82-1.94,1.57-2.95,2.26ZM130.34,986.16l1.28-.79c.85,1.49,1.77,2.72,2.76,3.68.98.96,2.18,1.76,3.61,2.4s3.23,1.21,5.43,1.71l-.63,1.57c-2.35-.62-4.26-1.29-5.74-2.01s-2.73-1.58-3.75-2.6-2-2.34-2.95-3.96ZM133.09,977.7l1.57-.52c.45,1,.86,2.02,1.24,3.06l-1.61.29-.19-.48c-.41-1.07-.75-1.86-1.01-2.35ZM136.02,982.75l.94-1.13c.73.46,1.68,1.12,2.85,1.99,1.17.87,2.12,1.6,2.83,2.2l-.96,1.26c-.64-.56-1.55-1.29-2.74-2.2s-2.16-1.61-2.93-2.12Z"/>
        <path class="cls-1" d="M146.01,990.1l-.92-1.13c1-.62,1.99-1.41,2.98-2.35.99-.94,1.73-1.82,2.23-2.62l1.36.63c-.6.91-1.41,1.85-2.42,2.82s-2.09,1.86-3.23,2.65ZM146.19,993.64l-.79-1.21c1.71-.69,3.08-1.47,4.12-2.33,1.03-.87,1.82-1.88,2.35-3.02l1.57.1c-.7,1.48-1.61,2.72-2.74,3.73s-2.63,1.92-4.52,2.74ZM147.79,978.18h12.14v6.66h-12.14v-6.66ZM148.5,986.48h12.61c-.04.77-.12,1.69-.23,2.77-.12,1.08-.23,1.97-.34,2.67-.1.61-.26,1.09-.46,1.44-.21.34-.5.59-.89.75s-.92.24-1.6.27c-.77.03-1.53-.01-2.3-.12l-.29-1.44c.71.1,1.38.15,1.99.15.51,0,.91-.05,1.2-.14s.5-.25.64-.48c.14-.22.25-.55.33-.99.09-.51.17-1.12.26-1.82.08-.7.14-1.29.16-1.76h-11.1l.02-1.3ZM148.67,980.89h10.34v1.22h-10.34v-1.22ZM149.27,979.5v4.06h9.19v-4.06h-9.19ZM150.68,995.13l-.98-1.19c1.25-.66,2.26-1.31,3.04-1.95.78-.64,1.4-1.34,1.88-2.1.47-.76.86-1.67,1.17-2.73l1.55.02c-.32,1.19-.75,2.24-1.28,3.16-.54.92-1.24,1.77-2.11,2.54-.87.78-1.96,1.53-3.27,2.24Z"/>
        <path class="cls-1" d="M164.73,988.13l-.73-1.63c.89-1.08,1.75-2.44,2.58-4.06.83-1.62,1.51-3.26,2.05-4.92l1.49.48c-.65,1.9-1.43,3.7-2.33,5.41-.91,1.7-1.93,3.28-3.06,4.72ZM168.29,981.56v13.26h-1.51v-12.54l1.51-.73ZM169.19,983.82l12.02-1.13.13,1.51-12.02,1.09-.13-1.47ZM172.91,977.45h1.57c.01.2.03.46.04.77.01.31.03.64.04,1.01l.08,2.03c.15,2.69.45,4.95.88,6.77s.92,3.12,1.47,3.91c.28.38.52.64.73.78s.43.2.67.2c.23,0,.42-.1.57-.29s.31-.58.46-1.17c.2-.73.38-1.49.52-2.28l1.32.61c-.17,1.01-.37,1.9-.61,2.68-.23.8-.54,1.38-.92,1.72s-.83.52-1.34.52c-.47,0-.92-.14-1.34-.42s-.87-.75-1.34-1.42c-.69-1.01-1.25-2.46-1.68-4.36s-.74-4.34-.92-7.31l-.04-.73c-.03-.59-.05-1.16-.09-1.72-.03-.56-.05-1-.07-1.3ZM175.95,978.98l.88-1.03c.48.38,1.04.84,1.66,1.36s1.08.93,1.39,1.22l-.96,1.13c-.34-.36-.82-.81-1.43-1.36-.61-.55-1.12-.99-1.54-1.32Z"/>
        <path class="cls-1" d="M184.06,980.84l-.12-1.53c2.45-.08,5.16-.23,8.13-.47s5.43-.51,7.4-.83l.23,1.51c-1.9.29-4.3.55-7.2.78-2.9.23-5.71.41-8.44.54ZM198.8,983.23v7.08c0,.63-.07,1.11-.22,1.46s-.38.59-.71.74-.78.22-1.37.22c-.82,0-1.51-.03-2.09-.1l-.27-1.49c.69.1,1.33.15,1.93.15.33,0,.58-.04.74-.11.16-.07.27-.21.33-.41.06-.2.1-.52.1-.96v-5.11h-10.43v8.14h-1.55v-9.61h13.53ZM191.24,979.61h1.53v15.35h-1.53v-15.35Z"/>
      </g>
    </g>
    <g>
      <circle class="cls-6" cx="83.51" cy="1105.05" r="28.03"/>
      <rect class="cls-4" x="91.29" y="1112.83" width="20.26" height="20.26" rx="10.13" ry="10.13"/>
    </g>
    <g>
      <g>
        <g>
          <path d="M148.21,1100.13h-11.02v-17.57h2.57v15.26h8.45v2.3Z"/>
          <path d="M153.06,1082.56l6.31,10.01,6.31-10.01h2.04v17.57h-2.5v-12.72l-5.18,8.14h-1.46l-5.23-8.18v12.77h-2.45v-17.57h2.16Z"/>
          <path d="M171.76,1100.13v-17.57h2.14l9.36,13.06v-13.06h2.4v17.57h-2.14l-9.36-13.08v13.08h-2.4Z"/>
        </g>
        <g>
          <path class="cls-8" d="M201.86,1097.12c-.28,0-.55-.11-.76-.32-.42-.42-.42-1.1,0-1.53l4.7-4.7c.42-.42,1.1-.42,1.53,0,.42.42.42,1.1,0,1.53l-4.7,4.7c-.21.21-.49.32-.76.32Z"/>
          <path class="cls-8" d="M206.56,1092.42c-.28,0-.55-.11-.76-.32l-4.7-4.7c-.42-.42-.42-1.1,0-1.53.42-.42,1.1-.42,1.53,0l4.7,4.7c.42.42.42,1.1,0,1.53-.21.21-.49.32-.76.32Z"/>
        </g>
      </g>
      <g>
        <path class="cls-8" d="M140.07,1127.37h-1.16l4.83-12h-6.54v-.92h7.75v.6l-4.88,12.32Z"/>
        <path class="cls-8" d="M152.19,1120.49c.81.21,1.43.6,1.86,1.17s.64,1.28.64,2.12c0,.75-.17,1.41-.51,1.98-.34.57-.8,1.01-1.39,1.31-.59.31-1.26.46-2.01.46-.92,0-1.75-.24-2.5-.71-.75-.48-1.25-1.15-1.5-2.04l.83-.49c.24.74.64,1.31,1.22,1.7.58.39,1.23.59,1.95.59.56,0,1.05-.12,1.47-.35.42-.23.74-.56.97-.99.23-.42.34-.91.34-1.46,0-.87-.28-1.54-.85-2.01-.56-.47-1.39-.71-2.47-.71h-.74l.02-.95h.79c.88,0,1.56-.23,2.04-.71.48-.47.71-1.07.71-1.81s-.22-1.28-.65-1.72c-.43-.44-1.02-.66-1.74-.66-.67,0-1.25.19-1.74.57-.49.38-.85.94-1.1,1.67l-.85-.48c.28-.89.75-1.57,1.42-2.03s1.44-.69,2.32-.69c.71,0,1.32.14,1.84.41.52.28.92.67,1.2,1.17.28.51.41,1.08.41,1.73,0,.69-.17,1.3-.5,1.81-.33.52-.83.88-1.49,1.09Z"/>
        <path class="cls-8" d="M161.87,1122.08l-3.74,4.35h6.34v.93h-7.93v-.67l4.55-5.27c.71-.81,1.2-1.47,1.48-1.99.28-.52.42-1.07.42-1.66,0-.79-.22-1.41-.67-1.88-.45-.46-1.04-.7-1.78-.7-.68,0-1.29.21-1.81.64-.53.43-.92,1.03-1.16,1.81l-.83-.48c.26-.94.75-1.66,1.46-2.17.72-.5,1.52-.76,2.41-.76.67,0,1.27.14,1.8.42.53.28.94.68,1.24,1.21.3.52.45,1.14.45,1.84s-.17,1.39-.51,2.03c-.34.63-.92,1.41-1.73,2.33Z"/>
        <path class="cls-8" d="M171.4,1123.4v-3.84h1.04v3.84h1.96v.92h-1.96v3.05h-1.04v-3.05h-5.78v-.72l5.06-9.15h1.15l-4.97,8.95h4.55Z"/>
        <path class="cls-8" d="M180.84,1122.08l-3.74,4.35h6.34v.93h-7.93v-.67l4.55-5.27c.71-.81,1.2-1.47,1.48-1.99.28-.52.42-1.07.42-1.66,0-.79-.22-1.41-.67-1.88-.45-.46-1.04-.7-1.78-.7-.68,0-1.29.21-1.81.64-.53.43-.92,1.03-1.16,1.81l-.83-.48c.26-.94.75-1.66,1.46-2.17.72-.5,1.52-.76,2.41-.76.67,0,1.27.14,1.8.42.53.28.94.68,1.24,1.21.3.52.45,1.14.45,1.84s-.17,1.39-.51,2.03c-.34.63-.92,1.41-1.73,2.33Z"/>
        <path class="cls-8" d="M189.57,1127.37v-11.65l-3.31,1.89v-1.08l3.56-2.08h.79v12.92h-1.04Z"/>
        <path class="cls-8" d="M200.33,1122.08l-3.74,4.35h6.34v.93h-7.93v-.67l4.55-5.27c.71-.81,1.2-1.47,1.48-1.99.28-.52.42-1.07.42-1.66,0-.79-.22-1.41-.67-1.88-.45-.46-1.04-.7-1.78-.7-.68,0-1.29.21-1.81.64-.53.43-.92,1.03-1.16,1.81l-.83-.48c.26-.94.75-1.66,1.46-2.17.72-.5,1.52-.76,2.41-.76.67,0,1.27.14,1.8.42.53.28.94.68,1.24,1.21.3.52.45,1.14.45,1.84s-.17,1.39-.51,2.03c-.34.63-.92,1.41-1.73,2.33Z"/>
        <path class="cls-8" d="M205.95,1127.54c-.2,0-.37-.08-.51-.23-.14-.15-.21-.33-.21-.53,0-.21.07-.39.21-.53.14-.14.31-.21.51-.21.21,0,.39.07.53.21.14.14.21.32.21.53s-.07.39-.21.54-.32.22-.53.22Z"/>
        <path class="cls-8" d="M214.32,1120.49c.81.21,1.43.6,1.86,1.17s.64,1.28.64,2.12c0,.75-.17,1.41-.51,1.98-.34.57-.8,1.01-1.39,1.31-.59.31-1.26.46-2.01.46-.92,0-1.75-.24-2.5-.71-.75-.48-1.25-1.15-1.5-2.04l.83-.49c.24.74.64,1.31,1.22,1.7.58.39,1.23.59,1.95.59.56,0,1.05-.12,1.47-.35.42-.23.74-.56.97-.99.23-.42.34-.91.34-1.46,0-.87-.28-1.54-.85-2.01-.56-.47-1.39-.71-2.47-.71h-.74l.02-.95h.79c.88,0,1.56-.23,2.04-.71.48-.47.71-1.07.71-1.81s-.22-1.28-.65-1.72c-.43-.44-1.02-.66-1.74-.66-.67,0-1.25.19-1.74.57-.49.38-.85.94-1.1,1.67l-.85-.48c.28-.89.75-1.57,1.42-2.03s1.44-.69,2.32-.69c.71,0,1.32.14,1.84.41.52.28.92.67,1.2,1.17.28.51.41,1.08.41,1.73,0,.69-.17,1.3-.5,1.81-.33.52-.83.88-1.49,1.09Z"/>
        <path class="cls-8" d="M224.07,1120.49c.81.21,1.43.6,1.86,1.17s.64,1.28.64,2.12c0,.75-.17,1.41-.51,1.98-.34.57-.8,1.01-1.39,1.31-.59.31-1.26.46-2.01.46-.92,0-1.75-.24-2.5-.71-.75-.48-1.25-1.15-1.5-2.04l.83-.49c.24.74.64,1.31,1.22,1.7.58.39,1.23.59,1.95.59.56,0,1.05-.12,1.47-.35.42-.23.74-.56.97-.99.23-.42.34-.91.34-1.46,0-.87-.28-1.54-.85-2.01-.56-.47-1.39-.71-2.47-.71h-.74l.02-.95h.79c.88,0,1.56-.23,2.04-.71.48-.47.71-1.07.71-1.81s-.22-1.28-.65-1.72c-.43-.44-1.02-.66-1.74-.66-.67,0-1.25.19-1.74.57-.49.38-.85.94-1.1,1.67l-.85-.48c.28-.89.75-1.57,1.42-2.03s1.44-.69,2.32-.69c.71,0,1.32.14,1.84.41.52.28.92.67,1.2,1.17.28.51.41,1.08.41,1.73,0,.69-.17,1.3-.5,1.81-.33.52-.83.88-1.49,1.09Z"/>
      </g>
    </g>
    <g>
      <path d="M444.83,1097.59v6.58c1.06.37,1.94.75,2.63,1.13s1.27.9,1.74,1.56c.46.66.7,1.49.7,2.48,0,1.38-.45,2.54-1.35,3.48-.9.94-2.14,1.48-3.71,1.63v3.37h-2.05v-3.39c-1.45-.19-2.7-.71-3.74-1.57-1.04-.86-1.71-1.96-2.01-3.29l1.75-1.06c.34,1.08.84,1.94,1.52,2.58.67.64,1.5,1.06,2.48,1.24v-6.58c-1.05-.35-1.92-.72-2.61-1.1s-1.27-.9-1.73-1.56c-.46-.66-.7-1.49-.7-2.51,0-1.47.47-2.66,1.42-3.56s2.15-1.43,3.62-1.58v-3.17h2.05v3.19c1.27.2,2.33.69,3.18,1.46.85.77,1.37,1.64,1.56,2.62l-1.75,1.06c-.2-.74-.56-1.38-1.06-1.91-.51-.53-1.15-.9-1.92-1.1ZM439.94,1100.38c0,.52.12.97.35,1.34s.56.69.98.96c.41.27.92.52,1.51.76v-5.95c-.86.13-1.55.46-2.06.96-.52.51-.77,1.15-.77,1.92ZM444.83,1106.48v5.9c.91-.12,1.61-.43,2.1-.92.49-.5.73-1.13.73-1.89,0-.52-.12-.97-.35-1.35-.24-.38-.56-.71-.98-.98-.41-.27-.92-.52-1.51-.76Z"/>
      <path d="M462.56,1114.23h-2.48l6.86-16.61h-8.99v-1.95h11.55v1.39l-6.94,17.17Z"/>
      <path d="M483.63,1104.96c0,3.14-.52,5.52-1.56,7.13-1.04,1.61-2.53,2.42-4.47,2.42s-3.41-.81-4.44-2.43c-1.04-1.62-1.56-3.99-1.56-7.12s.52-5.52,1.56-7.15c1.04-1.63,2.52-2.44,4.44-2.44s3.43.81,4.47,2.43c1.04,1.62,1.56,4.01,1.56,7.17ZM474.01,1104.96c0,2.52.29,4.39.87,5.62.58,1.23,1.49,1.85,2.72,1.85s2.14-.61,2.74-1.84c.59-1.22.89-3.1.89-5.64s-.3-4.44-.89-5.69-1.5-1.86-2.74-1.86-2.14.62-2.72,1.86c-.58,1.24-.87,3.14-.87,5.69Z"/>
      <path d="M498.06,1104.96c0,3.14-.52,5.52-1.56,7.13-1.04,1.61-2.53,2.42-4.47,2.42s-3.41-.81-4.44-2.43c-1.04-1.62-1.56-3.99-1.56-7.12s.52-5.52,1.56-7.15c1.04-1.63,2.52-2.44,4.44-2.44s3.43.81,4.47,2.43c1.04,1.62,1.56,4.01,1.56,7.17ZM488.44,1104.96c0,2.52.29,4.39.87,5.62.58,1.23,1.49,1.85,2.72,1.85s2.14-.61,2.74-1.84c.59-1.22.89-3.1.89-5.64s-.3-4.44-.89-5.69-1.5-1.86-2.74-1.86-2.14.62-2.72,1.86c-.58,1.24-.87,3.14-.87,5.69Z"/>
      <path d="M504.42,1114.23h-2.48l6.86-16.61h-8.99v-1.95h11.55v1.39l-6.94,17.17Z"/>
      <path d="M513.06,1114.51c-.39,0-.72-.15-1-.44-.28-.29-.42-.64-.42-1.03s.14-.75.42-1.04.61-.43,1-.43.75.14,1.03.43c.28.29.42.63.42,1.04s-.14.75-.42,1.04c-.28.29-.62.43-1.03.43Z"/>
      <path d="M528.66,1104.96c0,3.14-.52,5.52-1.56,7.13-1.04,1.61-2.53,2.42-4.47,2.42s-3.41-.81-4.44-2.43c-1.04-1.62-1.56-3.99-1.56-7.12s.52-5.52,1.56-7.15c1.04-1.63,2.52-2.44,4.44-2.44s3.43.81,4.47,2.43c1.04,1.62,1.56,4.01,1.56,7.17ZM519.04,1104.96c0,2.52.29,4.39.87,5.62.58,1.23,1.49,1.85,2.72,1.85s2.14-.61,2.74-1.84c.59-1.22.89-3.1.89-5.64s-.3-4.44-.89-5.69-1.5-1.86-2.74-1.86-2.14.62-2.72,1.86c-.58,1.24-.87,3.14-.87,5.69Z"/>
      <path d="M535.01,1114.23h-2.48l6.86-16.61h-8.99v-1.95h11.55v1.39l-6.94,17.17Z"/>
    </g>
    <g>
      <g>
        <path class="cls-1" d="M56.21,1044.23l-.73-1.63c.89-1.08,1.75-2.44,2.58-4.06.83-1.62,1.51-3.26,2.05-4.92l1.49.48c-.65,1.9-1.43,3.7-2.33,5.41-.91,1.7-1.93,3.28-3.06,4.72ZM59.77,1037.66v13.26h-1.51v-12.54l1.51-.73ZM60.67,1039.92l12.02-1.13.13,1.51-12.02,1.09-.13-1.47ZM64.38,1033.55h1.57c.01.2.03.46.04.77.01.31.03.64.04,1.01l.08,2.03c.15,2.69.45,4.95.88,6.77s.92,3.12,1.47,3.91c.28.38.52.64.73.78s.43.2.67.2c.23,0,.42-.1.57-.29s.31-.58.46-1.17c.2-.73.38-1.49.52-2.28l1.32.61c-.17,1.01-.37,1.9-.61,2.68-.23.8-.54,1.38-.92,1.72s-.83.52-1.34.52c-.47,0-.92-.14-1.34-.42s-.87-.75-1.34-1.42c-.69-1.01-1.25-2.46-1.68-4.36s-.74-4.34-.92-7.31l-.04-.73c-.03-.59-.05-1.16-.09-1.72-.03-.56-.05-1-.07-1.3ZM67.42,1035.08l.88-1.03c.48.38,1.04.84,1.66,1.36s1.08.93,1.39,1.22l-.96,1.13c-.34-.36-.82-.81-1.43-1.36-.61-.55-1.12-.99-1.54-1.32Z"/>
        <path class="cls-1" d="M75.54,1036.93l-.12-1.53c2.45-.08,5.16-.23,8.13-.47s5.43-.51,7.4-.83l.23,1.51c-1.9.29-4.3.55-7.2.78-2.9.23-5.71.41-8.44.54ZM90.28,1039.33v7.08c0,.63-.07,1.11-.22,1.46s-.38.59-.71.74-.78.22-1.37.22c-.82,0-1.51-.03-2.09-.1l-.27-1.49c.69.1,1.33.15,1.93.15.33,0,.58-.04.74-.11.16-.07.27-.21.33-.41.06-.2.1-.52.1-.96v-5.11h-10.43v8.14h-1.55v-9.61h13.53ZM82.72,1035.71h1.53v15.35h-1.53v-15.35Z"/>
        <path class="cls-1" d="M100.23,1035.58l-5.24,14.01h-1.65l5.25-14.01h1.65Z"/>
        <path class="cls-1" d="M102.07,1041.15l-.75-1.47c1.81-.82,3.35-1.71,4.61-2.67,1.26-.96,2.38-2.1,3.35-3.4h1.61c.93,1.26,2.05,2.39,3.35,3.39,1.3,1,2.87,1.92,4.71,2.78l-.8,1.46c-1.71-.86-3.27-1.82-4.68-2.89-1.41-1.07-2.53-2.16-3.36-3.27-.91,1.17-2.03,2.27-3.36,3.27-1.33,1.01-2.89,1.95-4.68,2.81ZM102.55,1050.58l-1-1.24c.74-.55,1.49-1.2,2.25-1.96.76-.76,1.42-1.52,1.98-2.29l1.21,1c-.55.71-1.23,1.48-2.04,2.29s-1.61,1.55-2.4,2.21ZM102.13,1042.95h15.93v1.53h-15.93v-1.53ZM105.42,1039.17h9.46v1.49h-9.46v-1.49ZM108.08,1049.34c.38.01.67-.02.85-.1.19-.08.31-.21.38-.39.07-.18.11-.46.11-.81v-7.89h1.61v8.27c0,.92-.17,1.56-.52,1.93-.34.37-.95.55-1.82.54-.8-.03-1.51-.08-2.11-.15l-.34-1.59c.71.12,1.33.18,1.84.19ZM112.98,1046.3l.96-1.15c.57.43,1.34,1.05,2.3,1.86s1.77,1.51,2.43,2.11l-1.03,1.22c-1.54-1.39-2.7-2.41-3.46-3.06-.66-.56-1.06-.89-1.19-.98Z"/>
        <path class="cls-1" d="M128.24,1038.41v1.24c-.82,1.29-1.78,2.37-2.89,3.25-1.11.87-2.6,1.66-4.46,2.36l-.55-1.24c1.62-.59,2.94-1.23,3.95-1.94,1.01-.71,1.85-1.54,2.52-2.5h-4.04l.42-1.17h5.05ZM121.19,1041.97l-.8-1.05c.65-.5,1.28-1.12,1.89-1.88s1.09-1.46,1.44-2.12l1.21.48c-.41.78-.93,1.56-1.58,2.35-.64.79-1.36,1.53-2.15,2.22ZM120.87,1035.02h7.83v2.74h-1.22v-1.49h-5.36v1.82h-1.24v-3.06ZM121.73,1040.67l.78-.84c1.07.61,1.97,1.13,2.68,1.55,1.63.93,2.95,1.73,3.96,2.39l-.75,1.17c-.64-.46-1.47-1.03-2.51-1.7-1.03-.68-1.99-1.28-2.87-1.82-.91-.52-1.34-.77-1.3-.75ZM127.89,1050.3h-5.95v-5.11h5.95v5.11ZM123.16,1046.39v2.72h3.52v-2.72h-3.52ZM123.72,1033.66l1.24-.36c.33.69.62,1.42.86,2.18l-1.15.34c-.31-.8-.62-1.52-.96-2.16ZM129.48,1050.83l-.86-1.21c1.26-.62,2.19-1.23,2.78-1.83.59-.59.96-1.23,1.12-1.9.16-.68.24-1.61.24-2.79v-2.83h1.26v3.02c0,1.33-.1,2.4-.31,3.21-.2.81-.63,1.56-1.27,2.24s-1.63,1.38-2.96,2.1ZM129.37,1034.35h8.27v1.34h-8.27v-1.34ZM129.81,1037.89h7.22v8.67h-1.26v-7.39h-4.69v7.37h-1.26v-8.65ZM133.69,1038.31l-1.44-.02c.13-.42.25-.92.36-1.49.11-.57.2-1.08.25-1.51l1.47.04c-.05.34-.14.81-.27,1.41-.13.59-.25,1.12-.38,1.58ZM132.96,1046.64l.73-.96c.52.41,1.23,1.01,2.12,1.82.89.8,1.62,1.49,2.19,2.05l-.96,1.09c-.71-.74-1.45-1.48-2.21-2.23-.76-.75-1.38-1.34-1.87-1.77Z"/>
      </g>
      <g>
        <g>
          <path class="cls-1" d="M398.26,1043.77l-.84-1.47c.91-1.17,1.75-2.53,2.52-4.06.77-1.53,1.41-3.08,1.92-4.65l1.45.44c-.59,1.79-1.3,3.49-2.14,5.11-.84,1.62-1.81,3.17-2.91,4.63ZM401.64,1037.74v13.21h-1.47v-12.5l1.47-.71ZM403.06,1042.1l-.9-1.38c1.43-1.03,2.63-2.15,3.6-3.34s1.73-2.48,2.28-3.86h1.45c.64,1.51,1.47,2.86,2.49,4.06,1.02,1.2,2.2,2.18,3.54,2.93l-.88,1.42c-1.34-.85-2.49-1.82-3.44-2.89-.95-1.07-1.76-2.32-2.42-3.75-.61,1.31-1.37,2.51-2.27,3.58-.9,1.07-2.05,2.15-3.45,3.23ZM404.11,1051.16l-1.32-.96c.73-.79,1.28-1.5,1.65-2.12.37-.63.63-1.3.78-2.04.15-.73.23-1.67.23-2.82v-2.72h1.49v2.68c0,1.34-.08,2.43-.25,3.26-.17.84-.44,1.6-.82,2.29s-.97,1.5-1.76,2.43ZM410.53,1040.53h1.47v10.37h-1.47v-10.37Z"/>
          <path class="cls-1" d="M417.43,1043.63l-.82-1.65c.74-1.06,1.41-2.33,2.02-3.81s1.12-3.04,1.54-4.69l1.57.31c-.51,1.91-1.11,3.67-1.8,5.28-.69,1.61-1.53,3.13-2.51,4.56ZM420.44,1037.16v13.71h-1.49v-12.79l1.49-.92ZM421.32,1048.94h13.07v1.34h-13.07v-1.34ZM422.26,1035.15h11.6v1.32h-11.6v-1.32ZM423.04,1038.18h9.67v11.2h-1.53v-9.9h-6.6v9.95h-1.53v-11.25ZM423.96,1040.95h7.87v1.19h-7.87v-1.19ZM423.96,1043.63h7.87v1.21h-7.87v-1.21ZM423.96,1046.33h7.87v1.17h-7.87v-1.17ZM427.12,1033.53h1.53v5.25h-1.53v-5.25Z"/>
          <path class="cls-1" d="M488.79,1047.29l-.65-1.42c.22-.15.36-.28.42-.39.06-.11.1-.26.1-.47v-9.26h1.47v9.19c.2-.08.45-.17.73-.28.28-.11.58-.23.9-.35l1.47-.61.13,1.55c-.46.19-1.05.44-1.78.75-.73.31-1.33.57-1.82.79-.38.17-.71.34-.98.52ZM492.47,1050.95v-17.34h1.49v17.34h-1.49ZM495.64,1042.41l-1.11-1.21c.7-1,1.36-2.23,1.98-3.7.62-1.47,1.04-2.83,1.25-4.07l1.59.25c-.33,1.58-.82,3.12-1.45,4.62-.64,1.5-1.39,2.87-2.26,4.11ZM495.43,1051.08l-.86-1.34c1.91-1.15,3.38-2.29,4.38-3.43,1.01-1.14,1.72-2.38,2.13-3.74.42-1.36.7-3.1.85-5.23h1.53c-.23,2.36-.59,4.3-1.07,5.81-.49,1.51-1.26,2.89-2.33,4.13-1.07,1.24-2.62,2.51-4.63,3.8ZM496.33,1038.83l1.26-1.05c.27,1.82.69,3.42,1.25,4.79.57,1.37,1.38,2.64,2.42,3.8,1.05,1.16,2.42,2.28,4.12,3.35l-.94,1.32c-1.68-1.08-3.06-2.23-4.13-3.45-1.07-1.21-1.91-2.52-2.53-3.92-.61-1.4-1.1-3.02-1.46-4.84ZM496.87,1038.03l.54-1.47h7.6v1.47h-8.13Z"/>
          <path class="cls-1" d="M507.09,1048.76h17.11v1.4h-17.11v-1.4ZM507.87,1044.11l-.69-1.34c1-.51,2.08-1.15,3.25-1.92,1.17-.77,2.16-1.5,2.95-2.17l.98,1.17c-.79.66-1.8,1.4-3.02,2.2-1.23.8-2.38,1.49-3.46,2.07ZM507.45,1036.88h16.38v1.4h-16.38v-1.4ZM509.39,1043h12.52v6.16h-1.42v-4.79h-9.65v4.79h-1.46v-6.16ZM510.29,1034.14l1.24-.86c.17.19.78.93,1.84,2.2.12.14.22.27.32.38.1.12.18.22.26.31l-1.28.94c-.19-.29-.56-.79-1.12-1.47-.56-.69-.97-1.19-1.25-1.49ZM513.08,1043.65h1.42v5.86h-1.42v-5.86ZM518.1,1037.87l-1.34-.75c.45-.54.95-1.18,1.5-1.92.56-.75,1.02-1.41,1.39-2l1.42.77c-.41.59-.88,1.24-1.43,1.96-.54.72-1.06,1.37-1.54,1.94ZM516.79,1043.65h1.42v5.86h-1.42v-5.86ZM516.81,1039.86l.84-1.21c1.37.82,3.53,2.18,6.49,4.08l-.84,1.26c-.82-.56-1.88-1.26-3.19-2.09-1.31-.83-2.41-1.51-3.3-2.05Z"/>
        </g>
        <polygon class="cls-11" points="449.02 1051.16 453.57 1043.28 444.47 1043.28 449.02 1051.16"/>
        <polygon class="cls-1" points="449.02 1033.2 444.47 1041.08 453.57 1041.08 449.02 1033.2"/>
        <polygon class="cls-11" points="535.25 1033.2 530.7 1041.08 539.8 1041.08 535.25 1033.2"/>
        <polygon class="cls-1" points="535.25 1051.16 539.8 1043.28 530.7 1043.28 535.25 1051.16"/>
      </g>
    </g>
  </g>
  <g>
    <path d="M81.12,419.24c1.19,1.66,1.78,3.72,1.78,6.16s-.62,4.62-1.86,6.41c-1.24,1.79-2.89,3.15-4.96,4.08-2.06.93-4.35,1.4-6.87,1.4-3.18,0-6-.78-8.46-2.33-2.46-1.55-4.17-3.81-5.12-6.76l5.53-3.18c.62,2.01,1.66,3.52,3.12,4.55,1.46,1.02,3.07,1.53,4.82,1.53,1.21,0,2.29-.24,3.26-.71.97-.47,1.74-1.18,2.33-2.11.58-.93.88-2.04.88-3.31,0-2.01-.75-3.53-2.25-4.57-1.5-1.04-3.76-1.56-6.79-1.56h-1.53l.05-5.81h2.03c2.3,0,4.05-.56,5.26-1.67,1.2-1.11,1.81-2.51,1.81-4.19,0-1.57-.5-2.82-1.51-3.75-1-.93-2.31-1.4-3.92-1.4-1.72,0-3.19.54-4.41,1.62-1.22,1.08-2.16,2.58-2.82,4.52l-5.31-3.07c.91-3.03,2.53-5.33,4.85-6.9,2.32-1.57,5.07-2.35,8.24-2.35,2.41,0,4.55.46,6.41,1.37,1.86.91,3.3,2.19,4.33,3.83,1.02,1.64,1.53,3.54,1.53,5.7,0,2.01-.47,3.77-1.4,5.29-.93,1.52-2.35,2.69-4.25,3.53,2.3.8,4.04,2.04,5.23,3.7Z"/>
    <path d="M96.32,430.6c.88,1.02,1.31,2.57,1.31,4.66,0,1.9-.39,3.64-1.18,5.23-.79,1.59-1.86,2.88-3.23,3.89-1.37,1-2.89,1.65-4.57,1.94v-3.5c1.46-.4,2.6-1.06,3.42-1.97.82-.91,1.3-2.08,1.45-3.51-.07.04-.14.05-.19.05h-.19c-1.17,0-2.12-.41-2.85-1.23-.73-.82-1.1-1.8-1.1-2.93,0-1.21.37-2.2,1.1-2.99.73-.79,1.66-1.18,2.79-1.18,1.28,0,2.36.51,3.23,1.53Z"/>
    <path d="M127.95,419.24c1.19,1.66,1.78,3.72,1.78,6.16s-.62,4.62-1.86,6.41c-1.24,1.79-2.89,3.15-4.96,4.08-2.06.93-4.35,1.4-6.87,1.4-3.18,0-6-.78-8.46-2.33-2.46-1.55-4.17-3.81-5.12-6.76l5.53-3.18c.62,2.01,1.66,3.52,3.12,4.55,1.46,1.02,3.07,1.53,4.82,1.53,1.21,0,2.29-.24,3.26-.71.97-.47,1.74-1.18,2.33-2.11.58-.93.88-2.04.88-3.31,0-2.01-.75-3.53-2.25-4.57-1.5-1.04-3.76-1.56-6.79-1.56h-1.53l.05-5.81h2.03c2.3,0,4.05-.56,5.26-1.67,1.2-1.11,1.81-2.51,1.81-4.19,0-1.57-.5-2.82-1.51-3.75-1-.93-2.31-1.4-3.92-1.4-1.72,0-3.19.54-4.41,1.62-1.22,1.08-2.16,2.58-2.82,4.52l-5.31-3.07c.91-3.03,2.53-5.33,4.85-6.9,2.32-1.57,5.07-2.35,8.24-2.35,2.41,0,4.55.46,6.41,1.37,1.86.91,3.3,2.19,4.33,3.83,1.02,1.64,1.53,3.54,1.53,5.7,0,2.01-.47,3.77-1.4,5.29-.93,1.52-2.35,2.69-4.25,3.53,2.3.8,4.04,2.04,5.23,3.7Z"/>
    <path d="M158.71,422.28h5.59v5.97h-5.59v8.38h-6.79v-8.38h-17.36v-4.77l14.19-27h7.34l-13.69,25.8h9.53v-9.97h6.79v9.97Z"/>
    <path d="M167.91,402.51v-6.02h26.24v4.33l-14.24,35.82h-7.56l14.02-34.12h-18.46Z"/>
    <path d="M201.24,436.11c-.79-.82-1.18-1.8-1.18-2.93s.4-2.11,1.21-2.93c.8-.82,1.75-1.23,2.85-1.23s2.04.4,2.85,1.21c.8.8,1.21,1.79,1.21,2.96s-.39,2.11-1.18,2.93-1.76,1.23-2.93,1.23c-1.1,0-2.04-.41-2.82-1.23Z"/>
    <path d="M237.47,432.03c-2.37,3.5-5.77,5.26-10.19,5.26s-7.82-1.76-10.21-5.29c-2.39-3.52-3.59-8.66-3.59-15.42s1.2-11.95,3.59-15.47,5.8-5.29,10.21-5.29,7.81,1.75,10.19,5.26c2.37,3.51,3.56,8.67,3.56,15.5s-1.19,11.94-3.56,15.45ZM222.38,427.37c1.04,2.37,2.67,3.56,4.9,3.56s3.81-1.18,4.85-3.53c1.04-2.36,1.56-5.96,1.56-10.82s-.52-8.53-1.56-10.9c-1.04-2.37-2.66-3.56-4.85-3.56s-3.82,1.19-4.87,3.56c-1.06,2.37-1.59,6.01-1.59,10.9s.52,8.42,1.56,10.79Z"/>
    <path d="M271.07,419.24c1.19,1.66,1.78,3.72,1.78,6.16s-.62,4.62-1.86,6.41c-1.24,1.79-2.89,3.15-4.96,4.08-2.06.93-4.35,1.4-6.87,1.4-3.18,0-6-.78-8.46-2.33-2.46-1.55-4.17-3.81-5.12-6.76l5.53-3.18c.62,2.01,1.66,3.52,3.12,4.55,1.46,1.02,3.07,1.53,4.82,1.53,1.21,0,2.29-.24,3.26-.71.97-.47,1.74-1.18,2.33-2.11.58-.93.88-2.04.88-3.31,0-2.01-.75-3.53-2.25-4.57-1.5-1.04-3.76-1.56-6.79-1.56h-1.53l.05-5.81h2.03c2.3,0,4.05-.56,5.26-1.67,1.2-1.11,1.81-2.51,1.81-4.19,0-1.57-.5-2.82-1.51-3.75-1-.93-2.31-1.4-3.92-1.4-1.72,0-3.19.54-4.41,1.62-1.22,1.08-2.16,2.58-2.82,4.52l-5.31-3.07c.91-3.03,2.53-5.33,4.85-6.9,2.32-1.57,5.07-2.35,8.24-2.35,2.41,0,4.55.46,6.41,1.37,1.86.91,3.3,2.19,4.33,3.83,1.02,1.64,1.53,3.54,1.53,5.7,0,2.01-.47,3.77-1.4,5.29-.93,1.52-2.35,2.69-4.25,3.53,2.3.8,4.04,2.04,5.23,3.7Z"/>
  </g>
  <g>
    <path d="M81.12,659.68c1.19,1.66,1.78,3.72,1.78,6.16s-.62,4.62-1.86,6.41c-1.24,1.79-2.89,3.15-4.96,4.08-2.06.93-4.35,1.4-6.87,1.4-3.18,0-6-.78-8.46-2.33-2.46-1.55-4.17-3.81-5.12-6.76l5.53-3.18c.62,2.01,1.66,3.52,3.12,4.55,1.46,1.02,3.07,1.53,4.82,1.53,1.21,0,2.29-.24,3.26-.71.97-.47,1.74-1.18,2.33-2.11.58-.93.88-2.04.88-3.31,0-2.01-.75-3.53-2.25-4.57-1.5-1.04-3.76-1.56-6.79-1.56h-1.53l.05-5.81h2.03c2.3,0,4.05-.56,5.26-1.67,1.2-1.11,1.81-2.51,1.81-4.19,0-1.57-.5-2.82-1.51-3.75-1-.93-2.31-1.4-3.92-1.4-1.72,0-3.19.54-4.41,1.62-1.22,1.08-2.16,2.58-2.82,4.52l-5.31-3.07c.91-3.03,2.53-5.33,4.85-6.9,2.32-1.57,5.07-2.35,8.24-2.35,2.41,0,4.55.46,6.41,1.37,1.86.91,3.3,2.19,4.33,3.83,1.02,1.64,1.53,3.54,1.53,5.7,0,2.01-.47,3.77-1.4,5.29-.93,1.52-2.35,2.69-4.25,3.53,2.3.8,4.04,2.04,5.23,3.7Z"/>
    <path d="M96.32,671.04c.88,1.02,1.31,2.57,1.31,4.66,0,1.9-.39,3.64-1.18,5.23-.79,1.59-1.86,2.88-3.23,3.89-1.37,1-2.89,1.65-4.57,1.94v-3.5c1.46-.4,2.6-1.06,3.42-1.97.82-.91,1.3-2.08,1.45-3.51-.07.04-.14.05-.19.05h-.19c-1.17,0-2.12-.41-2.85-1.23-.73-.82-1.1-1.8-1.1-2.93,0-1.21.37-2.2,1.1-2.99.73-.79,1.66-1.18,2.79-1.18,1.28,0,2.36.51,3.23,1.53Z"/>
    <path d="M127.95,659.68c1.19,1.66,1.78,3.72,1.78,6.16s-.62,4.62-1.86,6.41c-1.24,1.79-2.89,3.15-4.96,4.08-2.06.93-4.35,1.4-6.87,1.4-3.18,0-6-.78-8.46-2.33-2.46-1.55-4.17-3.81-5.12-6.76l5.53-3.18c.62,2.01,1.66,3.52,3.12,4.55,1.46,1.02,3.07,1.53,4.82,1.53,1.21,0,2.29-.24,3.26-.71.97-.47,1.74-1.18,2.33-2.11.58-.93.88-2.04.88-3.31,0-2.01-.75-3.53-2.25-4.57-1.5-1.04-3.76-1.56-6.79-1.56h-1.53l.05-5.81h2.03c2.3,0,4.05-.56,5.26-1.67,1.2-1.11,1.81-2.51,1.81-4.19,0-1.57-.5-2.82-1.51-3.75-1-.93-2.31-1.4-3.92-1.4-1.72,0-3.19.54-4.41,1.62-1.22,1.08-2.16,2.58-2.82,4.52l-5.31-3.07c.91-3.03,2.53-5.33,4.85-6.9,2.32-1.57,5.07-2.35,8.24-2.35,2.41,0,4.55.46,6.41,1.37,1.86.91,3.3,2.19,4.33,3.83,1.02,1.64,1.53,3.54,1.53,5.7,0,2.01-.47,3.77-1.4,5.29-.93,1.52-2.35,2.69-4.25,3.53,2.3.8,4.04,2.04,5.23,3.7Z"/>
    <path d="M158.71,662.72h5.59v5.97h-5.59v8.38h-6.79v-8.38h-17.36v-4.77l14.19-27h7.34l-13.69,25.8h9.53v-9.97h6.79v9.97Z"/>
    <path d="M167.91,642.95v-6.02h26.24v4.33l-14.24,35.82h-7.56l14.02-34.12h-18.46Z"/>
    <path d="M201.24,676.55c-.79-.82-1.18-1.8-1.18-2.93s.4-2.11,1.21-2.93c.8-.82,1.75-1.23,2.85-1.23s2.04.4,2.85,1.21c.8.8,1.21,1.79,1.21,2.96s-.39,2.11-1.18,2.93-1.76,1.23-2.93,1.23c-1.1,0-2.04-.41-2.82-1.23Z"/>
    <path d="M237.47,672.47c-2.37,3.5-5.77,5.26-10.19,5.26s-7.82-1.76-10.21-5.29c-2.39-3.52-3.59-8.66-3.59-15.42s1.2-11.95,3.59-15.47,5.8-5.29,10.21-5.29,7.81,1.75,10.19,5.26c2.37,3.51,3.56,8.67,3.56,15.5s-1.19,11.94-3.56,15.45ZM222.38,667.81c1.04,2.37,2.67,3.56,4.9,3.56s3.81-1.18,4.85-3.53c1.04-2.36,1.56-5.96,1.56-10.82s-.52-8.53-1.56-10.9c-1.04-2.37-2.66-3.56-4.85-3.56s-3.82,1.19-4.87,3.56c-1.06,2.37-1.59,6.01-1.59,10.9s.52,8.42,1.56,10.79Z"/>
    <path d="M271.07,659.68c1.19,1.66,1.78,3.72,1.78,6.16s-.62,4.62-1.86,6.41c-1.24,1.79-2.89,3.15-4.96,4.08-2.06.93-4.35,1.4-6.87,1.4-3.18,0-6-.78-8.46-2.33-2.46-1.55-4.17-3.81-5.12-6.76l5.53-3.18c.62,2.01,1.66,3.52,3.12,4.55,1.46,1.02,3.07,1.53,4.82,1.53,1.21,0,2.29-.24,3.26-.71.97-.47,1.74-1.18,2.33-2.11.58-.93.88-2.04.88-3.31,0-2.01-.75-3.53-2.25-4.57-1.5-1.04-3.76-1.56-6.79-1.56h-1.53l.05-5.81h2.03c2.3,0,4.05-.56,5.26-1.67,1.2-1.11,1.81-2.51,1.81-4.19,0-1.57-.5-2.82-1.51-3.75-1-.93-2.31-1.4-3.92-1.4-1.72,0-3.19.54-4.41,1.62-1.22,1.08-2.16,2.58-2.82,4.52l-5.31-3.07c.91-3.03,2.53-5.33,4.85-6.9,2.32-1.57,5.07-2.35,8.24-2.35,2.41,0,4.55.46,6.41,1.37,1.86.91,3.3,2.19,4.33,3.83,1.02,1.64,1.53,3.54,1.53,5.7,0,2.01-.47,3.77-1.4,5.29-.93,1.52-2.35,2.69-4.25,3.53,2.3.8,4.04,2.04,5.23,3.7Z"/>
  </g>
  <g>
    <rect class="cls-11" x="61.03" y="759.49" width="473.22" height="64.67" rx="32.33" ry="32.33"/>
    <g>
      <path d="M276.01,801.39l-1.3-1.97c1.7-.67,2.98-1.31,3.84-1.92.86-.61,1.48-1.29,1.84-2.04.36-.75.58-1.74.66-2.98.02-.06.02-.14.02-.23s0-.18.02-.28l.02-.5h2.26l-.02.5c-.02.11-.02.22-.02.31s0,.18-.02.26c-.14,1.6-.44,2.89-.89,3.88-.45.98-1.16,1.85-2.14,2.59-.98.74-2.4,1.53-4.27,2.36ZM276.95,783.18h16.75v9.26h-16.75v-9.26ZM279.04,780.03l1.85-1.2c.21.29.42.59.64.9.22.31.44.64.66.97.21.27.41.55.6.84.19.29.38.58.55.86l-1.94,1.18c-.11-.18-.5-.79-1.18-1.85-.53-.8-.92-1.37-1.18-1.7ZM279.13,785.29v5.04h12.38v-5.04h-12.38ZM288.28,784.81l-1.73-1.25c.48-.66,1.04-1.46,1.67-2.4.63-.94,1.13-1.72,1.5-2.33l1.94,1.1c-.14.24-.32.51-.52.8s-.41.61-.64.95c-.38.56-.77,1.11-1.15,1.64-.38.54-.74,1.03-1.08,1.48ZM288.93,791.46v5.54c0,.45.03.78.1,1.01.06.22.19.4.37.52.18.12.47.2.85.25.67.08,1.35.08,2.04,0,.43-.05.75-.12.95-.22.2-.1.34-.25.42-.47.08-.22.13-.56.14-1.02.02-.16.03-.34.05-.55s.03-.43.05-.67c.03-.66.05-1.06.05-1.22l2.06.41c.02.16.02.36.01.6,0,.24-.02.5-.04.79-.02.3-.03.59-.04.85,0,.26-.03.5-.06.71-.08.69-.23,1.24-.46,1.64-.22.41-.56.72-1.01.94s-1.05.35-1.8.4c-1.06.08-2.11.08-3.17,0-.66-.03-1.18-.16-1.58-.4-.4-.23-.69-.58-.86-1.03s-.26-1.04-.26-1.74v-6.34h2.18Z"/>
      <path d="M298.74,793.64l-.5-2.35c.86-.27,1.97-.66,3.31-1.18,1.34-.51,2.49-.98,3.43-1.39l.48,2.3c-.56.21-1.16.43-1.79.67s-1.28.49-1.93.74c-1.17.45-2.17.85-3,1.2ZM298.77,783.61h6.55v2.18h-6.55v-2.18ZM300.25,798.87c.37,0,.61-.09.73-.26s.18-.5.18-.98v-18.26h2.16v19.06c0,.96-.18,1.63-.55,2.02-.37.38-1.02.58-1.94.58-.59,0-1.12-.04-1.58-.12l-.41-2.21c.45.13.92.19,1.42.19ZM305.46,801.25l-1.15-2.16c1.81-.54,3.24-1.13,4.28-1.76s1.81-1.36,2.28-2.17.71-1.79.71-2.93v-5.54h2.06v5.62c0,1.58-.29,2.91-.86,3.98-.58,1.07-1.45,1.99-2.63,2.76-1.18.77-2.74,1.5-4.69,2.21ZM306.01,788l-1.3-1.68c1.22-1.18,2.24-2.36,3.06-3.52.82-1.16,1.52-2.4,2.1-3.73l2.06.6c-.59,1.5-1.34,2.89-2.23,4.16-.9,1.27-2.13,2.66-3.7,4.16ZM304.72,792.22h15.82v2.04h-15.82v-2.04ZM306.66,786.03h12.14v7.25h-2.02v-5.23h-8.09v5.09h-2.04v-7.1ZM309.81,781.23h7.63v1.87l-3.05,4.15-2.09-.82,2.45-3.19h-5.62l.67-2.02ZM311.7,793.38l1.85-.38c.3,1.39,1.06,2.6,2.26,3.61,1.2,1.02,2.78,1.82,4.75,2.41l-.96,2.18c-2.14-.72-3.88-1.73-5.21-3.04s-2.22-2.9-2.69-4.79Z"/>
    </g>
  </g>
</svg>