<svg preserveAspectRatio="none" overflow="visible" style="display: block;" width="30.98" height="41.74" viewBox="0 0 30.98 41.74" fill="none" xmlns="http://www.w3.org/2000/svg">
<g id="Group">
<path id="Vector" d="M26.43 41.73H12.72C12.2 41.73 11.73 41.44 11.48 40.98C9.12998 36.53 9.07998 36.49 6.25998 34.68C6.10998 34.6 5.49998 34.45 5.04998 34.34C3.33998 33.92 1.20997 33.39 0.40997 31.74C0.139969 31.17 -0.0700232 30.24 0.479977 29.03C1.14998 27.56 2.27998 26.57 3.72998 26.17C6.06998 25.52 8.83 26.5 10.72 27.43C10.72 27.32 10.72 27.21 10.72 27.09C10.74 25.46 10.77 23.3 10.8 21.19C10.84 18.23 10.88 15.36 10.88 14.17C10.88 14.03 10.9 13.89 10.94 13.76C11.78 11.04 14.05 10.12 15.92 10.39C17.97 10.7 19.45 12.29 19.45 14.17C19.45 14.89 19.48 15.57 19.52 16.4C19.57 17.51 19.63 18.85 19.65 20.85C26.17 21.81 30.14 25.36 30.31 25.52C30.59 25.78 30.76 26.14 30.77 26.52C30.77 26.83 30.98 34.23 30.98 37.09C30.98 40.34 28.1 41.55 26.57 41.73C26.52 41.73 26.46 41.74 26.4 41.74L26.43 41.73ZM13.57 38.94H26.33C26.76 38.87 28.21 38.52 28.21 37.08C28.21 34.74 28.07 29.13 28.02 27.23C26.82 26.32 23.25 23.94 18.16 23.48C17.44 23.41 16.89 22.81 16.89 22.09C16.89 19.44 16.82 17.83 16.76 16.53C16.72 15.66 16.69 14.94 16.69 14.17C16.69 13.62 16.1 13.24 15.54 13.16C15.14 13.1 14.19 13.11 13.71 14.4C13.71 15.71 13.67 18.43 13.63 21.23C13.58 24.69 13.52 28.96 13.54 29.65C13.58 29.94 13.54 30.24 13.38 30.51C13.04 31.14 12.27 31.41 11.61 31.13C11.33 31.01 11.14 30.93 11.01 30.76C9.58998 29.87 6.46998 28.3 4.50998 28.85C3.84998 29.03 3.38998 29.46 3.04998 30.18C2.95998 30.38 2.94999 30.49 2.95999 30.52C3.12999 30.97 5.1 31.46 5.75 31.62C6.62 31.83 7.29998 32 7.79998 32.32C10.91 34.32 11.39 34.8 13.58 38.92L13.57 38.94Z" fill="#A6DE00"/>
<path id="Vector_2" d="M6.17999 17.61H1.5C0.67 17.61 0 16.94 0 16.11C0 15.28 0.67 14.61 1.5 14.61H6.17999C7.00999 14.61 7.67999 15.28 7.67999 16.11C7.67999 16.94 7.00999 17.61 6.17999 17.61Z" fill="#A6DE00"/>
<path id="Vector_3" d="M28.21 17.61H23.26C22.43 17.61 21.76 16.94 21.76 16.11C21.76 15.28 22.43 14.61 23.26 14.61H28.21C29.04 14.61 29.71 15.28 29.71 16.11C29.71 16.94 29.04 17.61 28.21 17.61Z" fill="#A6DE00"/>
<path id="Vector_4" d="M14.96 8.26999C14.13 8.26999 13.46 7.59999 13.46 6.76999V1.5C13.46 0.67 14.13 0 14.96 0C15.79 0 16.46 0.67 16.46 1.5V6.76999C16.46 7.59999 15.79 8.26999 14.96 8.26999Z" fill="#A6DE00"/>
<path id="Vector_5" d="M8.44998 10.71C8.06998 10.71 7.67998 10.56 7.38998 10.27L3.66998 6.54999C3.07998 5.95999 3.07998 5.01 3.66998 4.43C4.25998 3.85 5.20997 3.84 5.78997 4.43L9.50997 8.15C10.1 8.74 10.1 9.69 9.50997 10.27C9.21997 10.56 8.82998 10.71 8.44998 10.71Z" fill="#A6DE00"/>
<path id="Vector_6" d="M21.29 10.71C20.91 10.71 20.52 10.56 20.23 10.27C19.64 9.67998 19.64 8.72999 20.23 8.14999L23.95 4.42999C24.54 3.83999 25.49 3.83999 26.07 4.42999C26.65 5.01999 26.66 5.96998 26.07 6.54998L22.35 10.27C22.06 10.56 21.67 10.71 21.29 10.71Z" fill="#A6DE00"/>
</g>
</svg>
